<svg version="1.1" id="Layer_1" xmlns="http://www.w3.org/2000/svg" xmlns:xlink="http://www.w3.org/1999/xlink" x="0px" y="0px" viewBox="0 0 500 500" style="width: 151px;" xml:space="preserve" data-imageid="analyst-50" imageName="Analyst" class="illustrations_image">
<style type="text/css">
	.st0_analyst-50{fill:#FFA366;}
	.st1_analyst-50{fill:url(#SVGID_1_);}
	.st2_analyst-50{fill:url(#SVGID_00000173880680511887237260000018376824445304446092_);}
	.st3_analyst-50{fill:#DD6F31;}
	.st4_analyst-50{opacity:0.49;fill:#FFFFFF;enable-background:new    ;}
	.st5_analyst-50{opacity:0.2;fill:#FFFFFF;enable-background:new    ;}
	.st6_analyst-50{fill:#68E1FD;}
	.st7_analyst-50{opacity:0.2;enable-background:new    ;}
	.st8_analyst-50{fill:#A3E271;}
	.st9_analyst-50{opacity:0.1;enable-background:new    ;}
	.st10_analyst-50{fill:#FFAD4A;}
	.st11_analyst-50{opacity:0.6;fill:#FFFFFF;enable-background:new    ;}
	.st12_analyst-50{fill:#FFFFFF;}
	.st13_analyst-50{fill:#007058;}
	.st14_analyst-50{fill:#FFC692;}
	.st15_analyst-50{fill:#FFE0DE;}
</style>
<g id="background">
	<path class="st0_analyst-50" d="M243.5,417.3L17.9,284c-7.2-4-13.3-10.7-6.3-15l226.4-130.5c3.4-2.1,8.6-3.5,12-1.5l236.8,137.4&#10;&#9;&#9;c7.2,4.2,8.5,15.8,1.3,20L273.2,417.1C264,422.4,252.7,422.5,243.5,417.3z"/>
	
		<linearGradient id="SVGID_1_-analyst-50" gradientUnits="userSpaceOnUse" x1="459.517" y1="182.3138" x2="244.4168" y2="319.7404" gradientTransform="matrix(1 0 0 -1 0 502)">
		<stop offset="0" style="stop-color:#FFA366"/>
		<stop offset="1" style="stop-color:#DD6F31"/>
	</linearGradient>
	<path class="st1_analyst-50" d="M364.8,232l108.7,65.8l-45.2,25.8L233.1,205.8c0,0-3.3-12.6,11.5-9.2S364.8,232,364.8,232z"/>
	
		<linearGradient id="SVGID_00000181795678255796459200000015467062262251324814_-analyst-50" gradientUnits="userSpaceOnUse" x1="293.7686" y1="99.2782" x2="245.8687" y2="134.9382" gradientTransform="matrix(1 0 0 -1 0 502)">
		<stop offset="0" style="stop-color:#FFA366"/>
		<stop offset="1" style="stop-color:#DD6F31"/>
	</linearGradient>
	<polyline style="fill:url(#SVGID_00000181795678255796459200000015467062262251324814_);" points="88.4,293.4 283.7,411.1 &#10;&#9;&#9;328.9,385.3 220.2,319.6 &#9;"/>
</g>
<g id="graphic_data">
	<polyline class="st3_analyst-50" points="88.4,172.9 88.4,293.4 123.1,313.2 162.2,290.1 162.2,169.6 &#9;"/>
	<polygon class="st3_analyst-50" points="88.4,172.9 128.6,150 162.2,169.6 123.1,192.8 &#9;"/>
	<polygon class="st4_analyst-50" points="88.4,172.9 128.6,150 162.2,169.6 123.1,192.8 &#9;"/>
	<polygon class="st5_analyst-50" points="123.1,192.8 123.1,313.2 162.2,290.1 162.2,169.6 &#9;"/>
	<polygon class="st6_analyst-50 targetColor" points="170.2,200.2 129.9,223.1 129.9,318.5 164.6,338.3 203.7,315.2 203.7,219.9 &#9;"/>
	<polygon class="st4_analyst-50" points="129.9,223.1 170.2,200.2 203.7,219.9 164.6,243 &#9;"/>
	<polygon class="st7_analyst-50" points="164.6,243 164.6,338.3 203.7,315.2 203.7,219.9 &#9;"/>
	<polyline class="st8_analyst-50" points="174.3,283.8 174.3,345.7 209,365.5 248.1,342.4 248.1,280.5 &#9;"/>
	<polygon class="st8_analyst-50" points="174.3,283.8 214.5,260.9 248.1,280.5 209,303.6 &#9;"/>
	<polygon class="st4_analyst-50" points="174.3,283.8 214.5,260.9 248.1,280.5 209,303.6 &#9;"/>
	<polygon class="st9_analyst-50" points="209,303.6 209,365.5 248.1,342.4 248.1,280.5 &#9;"/>
	<polyline class="st10_analyst-50" points="217.5,326.5 217.5,371 252.2,390.8 291.3,367.6 291.3,323.2 &#9;"/>
	<polygon class="st10_analyst-50" points="217.5,326.5 257.7,303.6 291.3,323.2 252.2,346.3 &#9;"/>
	<polygon class="st11_analyst-50" points="217.5,326.5 257.7,303.6 291.3,323.2 252.2,346.3 &#9;"/>
	<polygon class="st5_analyst-50" points="252.2,346.3 252.2,390.8 291.3,367.6 291.3,323.2 &#9;"/>
</g>
<g id="data_screen">
	<path class="st6_analyst-50 targetColor" d="M419.6,175.9l-179-103.1c-3.9-2.2-8.8-0.9-11,3c-0.7,1.2-1.1,2.6-1.1,4v107.3c0,2.4,1.3,4.6,3.4,5.8L422.7,303&#10;&#9;&#9;c2.1,1.2,4.7,0.5,5.9-1.6c0.4-0.7,0.6-1.4,0.6-2.2V192.5C429.2,185.6,425.5,179.3,419.6,175.9z"/>
	<path class="st7_analyst-50" d="M228.5,79.8L228.5,79.8c0-4.5,3.6-8.1,8.1-8.1c1.4,0,2.8,0.4,4,1.1l179,103.1c5.9,3.4,9.5,9.1,9.5,15.9v3.2&#10;&#9;&#9;L228.5,79.8z"/>
	<ellipse transform="matrix(0.9248 -0.3804 0.3804 0.9248 -12.282 96.084)" class="st12_analyst-50" cx="236.9" cy="79.1" rx="1.6" ry="2.5"/>
	<ellipse transform="matrix(0.9248 -0.3804 0.3804 0.9248 -12.9097 98.127)" class="st12_analyst-50" cx="241.8" cy="81.7" rx="1.6" ry="2.5"/>
	
		<ellipse transform="matrix(0.9248 -0.3804 0.3804 0.9248 -13.4532 100.2449)" class="st12_analyst-50" cx="246.9" cy="84.2" rx="1.6" ry="2.5"/>
	<path class="st13_analyst-50" d="M241.7,117.3v68.9c0.1,0.7,0.7,1.2,1.4,1.1c0.6-0.1,1.1-0.5,1.1-1.1v-68.9c-0.1-0.7-0.7-1.2-1.4-1.1&#10;&#9;&#9;C242.2,116.2,241.8,116.7,241.7,117.3z"/>
	<path class="st13_analyst-50" d="M296.8,145.6v68.9c0.1,0.7,0.7,1.2,1.4,1.1c0.6-0.1,1.1-0.5,1.1-1.1v-68.9c-0.1-0.7-0.7-1.2-1.4-1.1&#10;&#9;&#9;C297.3,144.6,296.9,145,296.8,145.6z"/>
	<path class="st13_analyst-50" d="M348.4,178.8v68.9c0,0.7,0.6,1.3,1.3,1.3c0.7,0,1.3-0.6,1.3-1.3v-68.9c0-0.7-0.6-1.3-1.3-1.3&#10;&#9;&#9;C349,177.6,348.4,178.1,348.4,178.8z"/>
	<path class="st13_analyst-50" d="M404.1,206.9v68.9c0.1,0.7,0.7,1.2,1.4,1.1c0.6-0.1,1.1-0.5,1.1-1.1v-68.9c-0.1-0.7-0.7-1.2-1.4-1.1&#10;&#9;&#9;C404.7,205.8,404.2,206.3,404.1,206.9z"/>
	<polygon class="st12_analyst-50" points="376.3,237.2 350.4,195.9 317.8,216.7 299.7,172.4 269.5,193.6 257.5,172.2 241.9,180.7 241.3,179.6 &#10;&#9;&#9;258,170.6 269.9,191.8 300.2,170.4 318.4,214.9 350.8,194.1 376.7,235.4 406.3,213.2 407,214.2 &#9;"/>
	<ellipse class="st13_analyst-50" cx="349.1" cy="196.6" rx="4.2" ry="5.3"/>
	<ellipse class="st13_analyst-50" cx="298.1" cy="171.9" rx="4.2" ry="5.3"/>
	<ellipse class="st13_analyst-50" cx="243" cy="179.7" rx="4.2" ry="5.3"/>
	<ellipse class="st13_analyst-50" cx="405.4" cy="214.5" rx="4.2" ry="5.3"/>
	<path class="st12_analyst-50" d="M265.6,125.7c6.7-2.1,14.2,3.3,17,12.4c1.3,3.9,1.4,8.2,0.3,12.1c-1.2,4-3.7,6.8-7.1,7.8&#10;&#9;&#9;c-0.9,0.3-1.9,0.4-2.9,0.4c-2.7-0.1-5.3-1-7.4-2.8c-3.2-2.6-5.6-6.1-6.8-10.1C255.9,136.6,258.9,127.8,265.6,125.7z"/>
	<path class="st10_analyst-50" d="M270.7,125.5c0,0,0,16.8,0,16.8l-12.4-8.4C258.4,133.9,260.7,123.8,270.7,125.5z"/>
	<path class="st13_analyst-50" d="M270.7,142.3l-12.5,1c0,0-1.6-5.4,0.2-9.4L270.7,142.3z"/>
	<path class="st12_analyst-50" d="M320.9,155.2c6.7-2.1,14.2,3.3,17,12.4c1.3,3.9,1.4,8.2,0.3,12.1c-1.2,4-3.7,6.8-7.1,7.8&#10;&#9;&#9;c-0.9,0.3-1.9,0.4-2.9,0.4c-2.7-0.1-5.3-1-7.4-2.8c-3.2-2.6-5.6-6.1-6.8-10.1C311.2,166.1,314.2,157.4,320.9,155.2z"/>
	<path class="st10_analyst-50" d="M326,155c0,0,0,16.8,0,16.8l-12.3-8.4C313.7,163.4,316.1,153.3,326,155z"/>
	<path class="st13_analyst-50" d="M326,171.8l-12.5,1c0,0-1.6-5.4,0.2-9.4L326,171.8z"/>
	<path class="st10_analyst-50" d="M326,171.8l12.2-3.1c0,0-2.1-11-12.2-13.7"/>
	<path class="st12_analyst-50" d="M374.1,183c6.7-2.1,14.2,3.3,17,12.4c1.3,3.9,1.4,8.2,0.3,12.1c-1.2,4-3.7,6.8-7.1,7.8&#10;&#9;&#9;c-0.9,0.3-1.9,0.5-2.9,0.4c-2.7-0.1-5.3-1-7.4-2.8c-3.2-2.6-5.6-6.1-6.8-10.1C364.5,193.9,367.4,185.1,374.1,183z"/>
	<path class="st10_analyst-50" d="M379.2,182.8v16.8l-12.3-8.4C366.9,191.2,369.3,181,379.2,182.8z"/>
	<path class="st13_analyst-50" d="M379.2,199.6l-12.5,1c0,0-1-5.6,0.2-9.4L379.2,199.6z"/>
	<path class="st10_analyst-50" d="M379.2,199.6v16.2c0,0,12.3,2.4,13-13.4c0,0,0.5-16.3-13-19.6V199.6z"/>
</g>
<g id="character">
	<path class="st13_analyst-50" d="M263.2,301.9c-0.7-0.1-2.7-0.1-3.5-0.1c-2.3,1.8-5.4,2.5-8.1,2.7c-3.3,0.4-7.1-0.1-10-2.3&#10;&#9;&#9;c-0.3,3-0.6,5.4-0.6,5.4c-0.3,4.1,5.1,3.3,7.1,3.2c4-0.2,7.9-0.8,11.8-1.8c1.5-0.4,6.5-1.2,6.8-3.7S266.1,302.2,263.2,301.9z"/>
	<path class="st14_analyst-50" d="M253.8,287c0,0-3.1,14.6-1.7,14.5s11,0.3,11,0.3c-1.8,3.6-5.3,6.1-9.4,6.6c-7.1,1-12.2-6.2-12.2-6.2l2.8-18.2&#10;&#9;&#9;"/>
	<path class="st15_analyst-50" d="M240.1,272.7l-1.9,19.2c0,0,3.3,3.4,14.6,3s0-20.5,0-20.5"/>
	<path class="st7_analyst-50" d="M240.1,272.7l-1.9,19.2c0,0,3.3,3.4,14.6,3s0-20.5,0-20.5"/>
	<path class="st15_analyst-50" d="M234.5,278c0,0,19.9,0.7,25.7-1.9c5.7-2.6-21.9-12.9-21.9-12.9"/>
	<path class="st15_analyst-50" d="M233.8,252.3c0,0,12.5-10,20.8-11.2s12.6,7.8,12,13.9s-20.5,9.3-20.5,9.3"/>
	<path class="st13_analyst-50" d="M274.8,310.5c-0.7-0.1-2.7-0.1-3.5-0.1c-2.3,1.8-5.4,2.5-8.1,2.7c-3.3,0.4-7.1-0.1-10-2.3&#10;&#9;&#9;c-0.3,3-0.6,5.4-0.6,5.4c-0.3,4.1,5.1,3.3,7.1,3.2c4-0.2,7.9-0.8,11.8-1.8c1.5-0.4,6.5-1.2,6.8-3.7S277.8,310.9,274.8,310.5z"/>
	<path class="st14_analyst-50" d="M265.5,295.7c0,0-3.1,14.6-1.7,14.5s11,0.3,11,0.3c-1.8,3.7-5.3,6.1-9.4,6.6c-7.1,1-12.2-6.2-12.2-6.2&#10;&#9;&#9;l2.8-18.2"/>
	<path class="st15_analyst-50" d="M234.6,252.7c0,0,12.5-10,20.8-11.2c8.3-1.2,12.6,7.8,12,13.9s-20.5,9.3-20.5,9.3"/>
	<path class="st15_analyst-50" d="M241.3,256.1c1.6-1.5,22.9-11.4,30.3-6.9s7,7.9,6.1,13.4s-8.2,35.2-8.2,35.2s-7.1,3.4-17,0.8l2.1-22.1&#10;&#9;&#9;l-28.3-15.5"/>
	<polygon class="st13_analyst-50" points="241.5,253.8 248.2,258.8 276.8,244.1 257.7,230.5 230.8,245.7 &#9;"/>
	<path class="st6_analyst-50 targetColor" d="M212.9,237.4c0,0-0.4-16.9,7.2-17.1s17.7,5.2,18.3,14.2c0.4,7.1,1.1,14.2,1.6,21.3c0.4,4.4,0,8.9-1.2,13.2&#10;&#9;&#9;c-0.8,2.5-2.1,7.5-4.2,9.1c-1.8,1.4-5.8,1.6-7.9,1.8c-4.7,0.6-9.4-0.1-13.7-1.9c-10.7-4.6-4-33.2-4-33.2"/>
	<path class="st14_analyst-50" d="M262.7,237.6l0.1-0.1c0.5-0.3,0.7-1,0.4-1.5c-0.3-0.5-1-0.7-1.5-0.4l0,0c-0.1,0-0.2,0.1-0.3,0.2&#10;&#9;&#9;c0-0.6-0.5-1.1-1.1-1.1c-0.2,0-0.4,0-0.5,0.1c-1.3,0.6-2.5,1.3-3.8,1.9c0.2-0.2,0.3-0.4,0.5-0.6c0.7-0.9-0.2-2.4-1.3-1.7&#10;&#9;&#9;c-1.5,0.9-3,1.9-4.4,3c-0.5,0.4-0.6,1.1-0.3,1.6c0,0,0,0,0,0.1l-0.2,0.2c-0.5,0.4-0.6,1-0.3,1.5c-0.1,0.3-0.1,0.7,0.1,1&#10;&#9;&#9;c-0.7,0.5-0.3,1.5,0.4,1.8c0,0,0.1,0.1,0.1,0.1l-1.3,0.5c-1.3,0.5-0.8,2.6,0.6,2.1l6.7-2.3c1.7-0.6,3.5-1.1,4.7-2.5&#10;&#9;&#9;c0.3-0.3,0.4-0.8,0.2-1.2c0.5-0.3,0.9-0.6,1.4-0.9c0.4-0.4,0.5-1,0.1-1.4C262.9,237.8,262.8,237.7,262.7,237.6z"/>
	<path class="st6_analyst-50 targetColor" d="M235.4,241.8c0,0,12-4.9,15.6-5.9c0,0,3.7,2.6,2.7,9.4c0,0-10.8,11-17.5,14.4"/>
	<path class="st14_analyst-50" d="M228.6,205.2c0,0,5.8,12.1,2,15.7c-2.7,2.5-8,2.4-10.7-2.3S223.4,203,228.6,205.2z"/>
	<path d="M223,216.8c0,0,5-4.2,5.6-10.7s-13.7-4.2-16,2.1s1.1,15.4,10.7,14.1L223,216.8z"/>
	<path d="M216.3,217.6c-1,0.8-26.1,26.4-13.1,35c10.9,7.1,15-30.3,15-33.2"/>
</g>
</svg>