<svg version="1.1" id="Layer_1" xmlns="http://www.w3.org/2000/svg" xmlns:xlink="http://www.w3.org/1999/xlink" x="0px" y="0px" viewBox="0 0 500 500" style="width: 151px;" xml:space="preserve" data-imageid="analyst-13" imageName="Analyst" class="illustrations_image">
<style type="text/css">
	.st0_analyst-13{fill:#FFFFFF;}
	.st1_analyst-13{fill:#231F20;}
	.st2_analyst-13{fill:#68E1FD;}
	.st3_analyst-13{fill:#D1D3D4;}
</style>
<g id="Bar_Chart">
	<rect x="204.1" y="291.8" class="st0_analyst-13" width="53.3" height="111.1"/>
	<path class="st1_analyst-13" d="M257.4,403.6h-53.3c-0.4,0-0.7-0.3-0.7-0.7l0,0V291.8c0-0.4,0.3-0.7,0.7-0.7c0,0,0,0,0,0h53.3&#10;&#9;&#9;c0.4,0,0.7,0.3,0.7,0.7v0v111.1C258.1,403.3,257.8,403.6,257.4,403.6L257.4,403.6L257.4,403.6z M204.8,402.2h51.9V292.5h-51.9&#10;&#9;&#9;V402.2z"/>
	<rect x="135.9" y="263.6" class="st0_analyst-13" width="53.3" height="139.3"/>
	<path class="st1_analyst-13" d="M189.3,403.6H136c-0.4,0-0.7-0.3-0.7-0.7l0,0V263.6c0-0.4,0.3-0.7,0.7-0.7c0,0,0,0,0,0h53.3&#10;&#9;&#9;c0.4,0,0.7,0.3,0.7,0.7l0,0v139.3C190,403.3,189.7,403.6,189.3,403.6C189.3,403.6,189.3,403.6,189.3,403.6L189.3,403.6z&#10;&#9;&#9; M136.7,402.2h51.9V264.3h-51.9L136.7,402.2z"/>
	<rect x="71.1" y="209.4" class="st0_analyst-13" width="53.3" height="193.5"/>
	<path class="st1_analyst-13" d="M124.4,403.6H71.1c-0.4,0-0.7-0.3-0.7-0.7l0,0V209.4c0-0.4,0.3-0.7,0.7-0.7h53.3c0.4,0,0.7,0.3,0.7,0.7v193.5&#10;&#9;&#9;C125.1,403.3,124.8,403.6,124.4,403.6z M71.8,402.2h51.9V210.1H71.8L71.8,402.2z"/>
</g>
<g id="Character">
	<path class="st0_analyst-13" d="M331.7,382.8c0,0,14.2,21.3,16.6,20.1s32.1-21.1,27.7-23.1s-20,2.1-20,2.1l-11.7-14.1L331.7,382.8L331.7,382.8&#10;&#9;&#9;z"/>
	<path class="st1_analyst-13" d="M348.2,403.6c-2.8,0-10.8-11-17.1-20.4c-0.2-0.3-0.1-0.6,0-0.8l12.6-15c0.1-0.2,0.3-0.3,0.5-0.2&#10;&#9;&#9;c0.2,0,0.4,0.1,0.5,0.2l11.4,13.7c2.6-0.7,15.9-3.8,20-2c0.5,0.2,0.8,0.7,0.8,1.2c0.1,4.6-27.3,22.5-28.5,23.1&#10;&#9;&#9;C348.4,403.5,348.3,403.6,348.2,403.6L348.2,403.6z M332.6,382.8c6.3,9.3,13.9,19.3,15.5,19.4c0.9-0.5,8-5.1,15-10.3&#10;&#9;&#9;c12.7-9.4,12.7-11.4,12.7-11.6c-3.4-1.5-15.2,1-19.5,2.2c-0.3,0.1-0.5,0-0.7-0.2l-11.2-13.4L332.6,382.8L332.6,382.8z"/>
	<path class="st0_analyst-13" d="M282.8,378c0,0-6.7,25.1-4.9,27.2s45.2,4.2,43.6,1.8s-22-15.5-22-15.5l2-11.8L282.8,378L282.8,378z"/>
	<path class="st1_analyst-13" d="M312.1,408.8c-12.7,0-33.3-1.5-34.7-3.1c-1.9-2.2,3.1-21.9,4.7-27.8c0.1-0.3,0.4-0.5,0.7-0.5l18.7,1.8&#10;&#9;&#9;c0.2,0,0.4,0.1,0.5,0.3c0.1,0.2,0.2,0.3,0.1,0.5l-1.9,11.3c3.4,2.2,20.3,13.1,21.8,15.5c0.3,0.4,0.2,1-0.2,1.3&#10;&#9;&#9;C321.2,408.5,317.3,408.8,312.1,408.8L312.1,408.8z M283.4,378.8c-3.1,11.8-5.8,24.6-4.9,26c2.2,1.7,37,3.5,42.1,2.2&#10;&#9;&#9;c-2.5-2.4-13.8-10-21.4-14.9c-0.2-0.1-0.4-0.4-0.3-0.7l1.8-11L283.4,378.8L283.4,378.8z"/>
	<polygon class="st1_analyst-13" points="272.8,266.2 355,373.1 330.8,389.5 220,266.2 &#9;"/>
	<path class="st1_analyst-13" d="M330.8,390.2c-0.2,0-0.4-0.1-0.5-0.2L219.4,266.7c-0.2-0.2-0.2-0.5-0.1-0.8c0.1-0.3,0.4-0.4,0.6-0.4h52.8&#10;&#9;&#9;c0.2,0,0.4,0.1,0.6,0.3l82.1,106.9c0.1,0.2,0.2,0.3,0.1,0.5c0,0.2-0.1,0.4-0.3,0.5l-24.2,16.4C331.1,390.1,330.9,390.2,330.8,390.2&#10;&#9;&#9;L330.8,390.2z M221.5,266.9l109.4,121.6l23.1-15.6l-81.5-106L221.5,266.9L221.5,266.9z"/>
	<path class="st1_analyst-13" d="M195.5,268.1c0,0,7.3,21.2,15.2,29.9s73.8,33.1,73.8,33.1l-6,52.8l30.4,3.2c0,0,20.8-57.5,13.8-67&#10;&#9;&#9;s-84-60.2-84-60.2L195.5,268.1L195.5,268.1z"/>
	<path class="st1_analyst-13" d="M308.9,387.8L308.9,387.8l-30.5-3.2c-0.2,0-0.4-0.1-0.5-0.3c-0.1-0.1-0.2-0.3-0.1-0.5l5.9-52.2&#10;&#9;&#9;c-6.6-2.5-65.9-24.7-73.5-33.1c-7.9-8.7-15-29.3-15.3-30.2c-0.1-0.2,0-0.4,0.1-0.6c0.1-0.2,0.3-0.3,0.5-0.3l43.2-8.2&#10;&#9;&#9;c0.2,0,0.4,0,0.5,0.1c3.1,2.1,77.1,50.9,84.2,60.4c3.1,4.1,1.7,16.8-4.1,37.7c-4.3,15.4-9.5,29.9-9.5,30&#10;&#9;&#9;C309.4,387.6,309.2,387.8,308.9,387.8L308.9,387.8z M279.2,383.3l29.2,3.1c1-2.7,5.5-15.7,9.3-29.4c7.1-25.5,6.3-33.9,4.3-36.4&#10;&#9;&#9;c-6.7-9-78.8-56.8-83.6-59.9l-42.1,8c1.4,3.9,7.9,21.4,14.8,28.9c7.7,8.5,72.8,32.7,73.5,32.9c0.3,0.1,0.5,0.4,0.5,0.7L279.2,383.3&#10;&#9;&#9;z"/>
	<path class="st0_analyst-13" d="M276.5,190.6c0,0,13.8,30.8,15.9,31l8.5-13.3c0,0,0.8-9.1,3.1-12.8s5-2.6,5-2.6s2.3-4.4,5.2-4.9&#10;&#9;&#9;s11.9,5.1,6.6,8.5s-22.3,52.7-28.6,53.3c-20.1,1.9-34.3-53.6-34.2-53.7L276.5,190.6L276.5,190.6z"/>
	<path class="st1_analyst-13" d="M291.3,250.6c-7.7,0-15.3-7.8-22.7-23.1c-5.6-11.8-11.8-31-10.9-31.8c0.1-0.1,0.2-0.1,0.3-0.2l18.4-5.5&#10;&#9;&#9;c0.3-0.1,0.7,0.1,0.8,0.4c6,13.2,13,27.7,15.1,30.3l8-12.5c0.1-1.3,1-9.4,3.2-12.9c2-3.1,4.2-3.2,5.2-3.1c0.7-1.2,2.8-4.4,5.5-4.8&#10;&#9;&#9;c2.4-0.4,7.6,2.4,8.8,5.4c0.4,1,0.7,2.9-1.7,4.4c-2.1,1.4-7,12.3-11.6,22.8c-8.1,18.3-13.7,30.3-17.3,30.6&#10;&#9;&#9;C292,250.5,291.6,250.6,291.3,250.6L291.3,250.6z M259,196.6c2.5,9.4,5.7,18.6,9.6,27.4c5.4,12,13.8,26.1,23.7,25.1&#10;&#9;&#9;c3.1-0.3,10.7-17.4,16.2-29.8c5.2-11.7,9.6-21.8,12.1-23.4c1.6-1,1.4-2,1.1-2.7c-1-2.4-5.5-4.8-7.2-4.5c-2.1,0.4-4.1,3.4-4.7,4.6&#10;&#9;&#9;c-0.2,0.3-0.5,0.5-0.9,0.3c-0.1,0-2.1-0.8-4.1,2.4c-2.2,3.5-3,12.3-3,12.4c0,0.1,0,0.2-0.1,0.3l-8.6,13.3c-0.1,0.2-0.4,0.4-0.7,0.3&#10;&#9;&#9;c-2.1-0.3-11-19.2-16.2-30.9L259,196.6L259,196.6z"/>
	<path class="st0_analyst-13" d="M214,109.4c-0.9,0.9-1.8,1.8-2.7,2.7c-3.1,3.5-4.8,7.9-6.4,12.2c-2.5,6.6-4,19.4-8.1,24.6&#10;&#9;&#9;c-4.5,5.8-14.6,3.3-18.6,10.1c-2.5,4.3-0.4,10-1.8,14.8c-2.5,8.7-14.3,10.7-19.8,18c-4.3,5.8-3.8,13.9-1.8,20.9&#10;&#9;&#9;c1.4,4.8,3.4,9.6,7.1,13c11.6,11.1,34,1.9,41.9-9.4c4-5.7,6.2-13.3,12.5-16.4c4.5-2.3,9.9-1.5,14.9-1.7c5.6-0.2,11-1.7,16-4.2&#10;&#9;&#9;c5.2-2.7,10.2-8.3,8.2-13.8c-1.3-3.4-5-5.6-5.7-9.2c-0.9-4.9,4.1-8.6,7.7-12.1c9.3-9.3,9.2-26.3-0.2-35.5c4.3-5.9,3.9-14.1-1-19.5&#10;&#9;&#9;c-1.1-1.2-2.5-2.1-4-2.5c-1.6-0.2-3.2-0.2-4.7,0.2c-12.9,1.8-23.2-1.2-33.3,7.9L214,109.4z"/>
	<path class="st1_analyst-13" d="M175.4,231.5c-5.2,0.2-10.3-1.7-14.1-5.2c-3.2-3.1-5.5-7.3-7.2-13.3c-1.8-6.2-2.9-15.1,1.9-21.5&#10;&#9;&#9;c2.4-3.2,5.9-5.4,9.4-7.5c4.6-2.8,8.9-5.5,10.3-10.3c0.5-2.1,0.6-4.2,0.5-6.3c-0.1-3-0.1-6,1.4-8.7c2.2-3.8,6.3-4.9,10.1-5.9&#10;&#9;&#9;c3.4-0.9,6.5-1.7,8.5-4.2c2.5-3.2,4.1-9.7,5.5-15.4c0.7-3,1.5-6.1,2.5-9c1.6-4.2,3.4-8.8,6.6-12.5c0.9-1,1.8-1.9,2.7-2.8l0,0&#10;&#9;&#9;c7.5-6.7,14.9-7,23.5-7.3c3.2-0.1,6.6-0.2,10.1-0.7l0.5-0.1c1.5-0.3,3-0.3,4.4-0.1c1.7,0.5,3.2,1.4,4.4,2.7&#10;&#9;&#9;c5,5.5,5.6,13.7,1.5,19.9c9.2,10.3,9.1,25.9-0.2,36.1c-0.6,0.6-1.2,1.2-1.8,1.8c-3.1,2.9-6.4,6-5.6,9.8c0.3,1.8,1.5,3.2,2.8,4.8&#10;&#9;&#9;c1.2,1.3,2.1,2.8,2.8,4.4c2.1,5.6-2.7,11.6-8.5,14.6c-5,2.6-10.6,4.1-16.3,4.3c-1.2,0-2.5,0-3.7,0c-3.8,0-7.6-0.1-10.9,1.6&#10;&#9;&#9;c-4.2,2.1-6.4,6.2-8.9,10.6c-1,1.9-2.1,3.8-3.3,5.6c-5.2,7.5-16.2,13.6-26.1,14.6C177.3,231.4,176.4,231.5,175.4,231.5L175.4,231.5&#10;&#9;&#9;z M214.5,109.9c-0.9,0.8-1.8,1.7-2.6,2.7c-3,3.4-4.7,7.8-6.3,12c-1,2.9-1.8,5.8-2.5,8.8c-1.5,6.1-3,12.5-5.8,15.9&#10;&#9;&#9;c-2.3,2.9-5.8,3.8-9.3,4.7c-3.8,1-7.3,1.9-9.3,5.3c-1.3,2.3-1.3,5-1.2,7.9c0.2,2.3,0,4.5-0.5,6.7c-1.5,5.3-6.3,8.2-10.9,11.1&#10;&#9;&#9;c-3.3,2.1-6.8,4.2-9,7.2c-4.5,6-3.4,14.4-1.7,20.3c1.7,5.8,3.9,9.8,6.9,12.7c4.9,4.7,11.3,5.1,15.8,4.7c9.5-0.9,20-6.8,25.1-14&#10;&#9;&#9;c1.2-1.8,2.3-3.6,3.3-5.4c2.4-4.4,4.9-8.9,9.5-11.2c3.6-1.8,7.6-1.8,11.6-1.7c1.2,0,2.4,0,3.6,0c5.5-0.2,10.8-1.6,15.7-4.2&#10;&#9;&#9;c5.2-2.8,9.6-8.1,7.8-12.9c-0.6-1.4-1.5-2.8-2.6-3.9c-1.3-1.6-2.7-3.2-3.1-5.4c-0.9-4.5,2.8-8,6.1-11c0.6-0.6,1.2-1.2,1.8-1.7&#10;&#9;&#9;c9-9.8,8.9-24.8-0.2-34.5c-0.3-0.2-0.3-0.6-0.1-0.9c4.1-5.6,3.7-13.4-1-18.6c-1-1.1-2.3-1.9-3.7-2.3c-1.3-0.2-2.6-0.2-3.9,0.1&#10;&#9;&#9;l-0.6,0.1c-3.4,0.4-6.8,0.7-10.3,0.7c-8.4,0.3-15.6,0.6-22.6,7l0,0L214.5,109.9z"/>
	<path class="st2_analyst-13 targetColor" d="M259.3,167.8c0,0,17.2,17.9,22,28.9c-8.2,0.8-16.4,2.6-24.2,5.3L259.3,167.8z"/>
	<path class="st2_analyst-13 targetColor" d="M232.9,157.1c0,0-16-6.6-35.7,10.1c-8.9,7.5-10.7,15.6-14.4,24c2.8,28.1,12.7,76.9,12.7,76.9l77.3-1.9&#10;&#9;&#9;c0,0-5.3-85.3-11.5-95.9S232.9,157.1,232.9,157.1L232.9,157.1z"/>
	<path class="st1_analyst-13" d="M222.4,160.7c1.2,2.4,14.5,53.1,14.5,53.1l7.2-47.1L222.4,160.7z"/>
	<path class="st1_analyst-13" d="M236.9,214.5c-0.3,0-0.6-0.2-0.7-0.5c-3.7-14.1-13.5-51.1-14.4-52.9c-0.1-0.2-0.1-0.5,0.1-0.8&#10;&#9;&#9;c0.2-0.2,0.5-0.3,0.7-0.2l21.6,6c0.3,0.1,0.6,0.4,0.5,0.8l-7.2,47.1C237.5,214.2,237.3,214.5,236.9,214.5L236.9,214.5z&#10;&#9;&#9; M223.5,161.8c2.2,7.1,10.5,38.2,13.2,48.6l6.6-43.1L223.5,161.8L223.5,161.8z"/>
	<path class="st0_analyst-13" d="M253.9,119.8c0,0,3.6,11.5,1.3,20c-1.2,4.9-5.1,8.6-10.1,9.4l-0.6,15.2c0,0-0.2,7.8-9.7,6.2&#10;&#9;&#9;c-5.6-0.9-10.3-4.7-12.4-9.9v-28c0,0,11-5.8,10.5-15.9C232.9,116.9,245.5,123.6,253.9,119.8L253.9,119.8z"/>
	<path class="st1_analyst-13" d="M237.3,171.6c-0.8,0-1.7-0.1-2.5-0.2c-5.9-0.9-10.8-4.9-13-10.4c0-0.1,0-0.2,0-0.2v-28c0-0.3,0.2-0.5,0.4-0.6&#10;&#9;&#9;c0.1-0.1,10.6-5.7,10.1-15.2c0-0.3,0.1-0.5,0.3-0.6c0.2-0.1,0.5-0.1,0.7,0c0.1,0.1,12.4,6.5,20.4,3c0.4-0.2,0.8,0,0.9,0.4&#10;&#9;&#9;c0,0,0,0,0,0.1c0.1,0.5,3.7,11.8,1.3,20.4c-1.2,4.9-5.1,8.7-10.1,9.8l-0.6,14.6c-0.1,2.1-1.1,4-2.6,5.4&#10;&#9;&#9;C241.1,171.1,239.2,171.7,237.3,171.6L237.3,171.6z M223.1,160.6c2.1,5,6.6,8.5,11.9,9.4c2.9,0.5,5.2,0.1,6.8-1.2&#10;&#9;&#9;c1.3-1.1,2-2.7,2.1-4.4l0.6-15.2c0-0.3,0.3-0.6,0.6-0.7c4.7-0.8,8.4-4.3,9.5-8.9c1.9-7-0.4-16.2-1.1-18.8&#10;&#9;&#9;c-7.2,2.7-16.7-1.3-19.8-2.8c-0.2,8.8-8.6,14-10.5,15.2L223.1,160.6L223.1,160.6z"/>
	<path class="st0_analyst-13" d="M227.8,130.9c0,0-4.3-10.7-9.8-4.3c-5.6,6.5,1.9,14,6.6,13.6"/>
	<path class="st1_analyst-13" d="M224.1,141c-2.9,0-6.2-2.3-7.9-5.5c-1.7-3-1.2-6.8,1.2-9.3c1.5-1.8,3.1-2.5,4.8-2.2c3.8,0.6,6.1,6.5,6.2,6.7&#10;&#9;&#9;c0.1,0.4,0,0.8-0.4,0.9s-0.8,0-0.9-0.4l0,0c-0.6-1.5-2.7-5.5-5.2-5.9c-1.1-0.2-2.3,0.4-3.5,1.8c-2,2.1-2.4,5.2-1,7.7&#10;&#9;&#9;c1.5,2.8,4.6,4.9,7,4.7c0.4,0,0.7,0.2,0.8,0.6c0,0.4-0.2,0.7-0.6,0.8c0,0,0,0,0,0L224.1,141L224.1,141z"/>
	<path class="st1_analyst-13" d="M247.6,140.1c-1.1,0-2.2-0.2-3.3-0.5c-0.4-0.1-0.6-0.5-0.5-0.9s0.5-0.6,0.9-0.5l0,0c0.8,0.2,3.2,0.8,4.4,0.2&#10;&#9;&#9;c0.2-0.6-1.7-4.3-4.1-7.8c-0.2-0.3-0.2-0.7,0.1-1c0.3-0.2,0.7-0.2,1,0.1c0,0,0,0.1,0.1,0.1c1.1,1.6,4.7,7,4.2,9&#10;&#9;&#9;c-0.1,0.4-0.3,0.7-0.7,0.8C249.1,140,248.4,140.1,247.6,140.1L247.6,140.1z"/>
	<path class="st1_analyst-13" d="M243.9,144.6c-0.9,0-1.8-0.1-2.7-0.4c-2.6-0.7-4.9-2.4-6.4-4.7c-0.1-0.4,0-0.8,0.4-0.9c0,0,0,0,0,0&#10;&#9;&#9;c0.4-0.1,0.8,0,0.9,0.4c1.4,1.9,3.4,3.3,5.7,3.9c2.9,0.7,6-0.1,9.1-2.4c0.3-0.2,0.7-0.2,1,0.1c0.2,0.3,0.2,0.7-0.1,1&#10;&#9;&#9;C249.5,143.5,246.7,144.5,243.9,144.6L243.9,144.6z"/>
	<path class="st1_analyst-13" d="M245.2,149.2c0,0-8.2,0.7-12.8-0.7c0,0,4.6,12.2,12.4,12.4L245.2,149.2L245.2,149.2z"/>
	<path class="st1_analyst-13" d="M244.7,161.7L244.7,161.7c-8.1-0.2-12.8-12.4-13-12.9c-0.1-0.2,0-0.5,0.1-0.7c0.2-0.2,0.5-0.3,0.7-0.2&#10;&#9;&#9;c4.4,1.3,12.4,0.6,12.5,0.6c0.2,0,0.4,0,0.5,0.2c0.1,0.1,0.2,0.3,0.2,0.5l-0.4,11.8C245.4,161.4,245.1,161.7,244.7,161.7&#10;&#9;&#9;L244.7,161.7z M233.6,149.6c1.4,2.9,5.1,9.9,10.5,10.6l0.4-10.2C240.8,150.3,237.2,150.1,233.6,149.6L233.6,149.6z"/>
	
		<ellipse transform="matrix(0.9999 -1.553281e-02 1.553281e-02 0.9999 -1.966 3.7491)" class="st1_analyst-13" cx="240.4" cy="128.4" rx="1.2" ry="2.1"/>
	
		<ellipse transform="matrix(0.9999 -1.553281e-02 1.553281e-02 0.9999 -1.9621 3.9201)" class="st1_analyst-13" cx="251.4" cy="128.3" rx="1.2" ry="2.1"/>
	<path class="st0_analyst-13" d="M182.8,191.2c0,0-16.1,52.7-4.8,65c7.9,8.5,28-0.7,36.8-4.1c43.3-16.6,58.7-30.2,55.2-29.6&#10;&#9;&#9;c1.1-3.6-9.8,1.4-11.6,2.1c-0.7-2.9,4.6-8,7.6-8.2s6.4,1.1,6.9-1.9c0.3-1.7-1.3-3.4-2.9-4.2s-14.1-1.5-16.9,0.9&#10;&#9;&#9;c-1.7,1.6-2.6,3.9-4.3,5.5c-1.8,1.5-3.8,2.7-6.1,3.3c-8.6,3.1-17.3,5.9-26.1,8.3c-4.2,1.2-14.3,3.5-14.3,3.5l5.1-31.1"/>
	<path class="st1_analyst-13" d="M187.7,260.5c-4.1,0-7.7-1-10.2-3.8c-11.5-12.4,4-63.5,4.6-65.7c0.1-0.4,0.5-0.6,0.8-0.5&#10;&#9;&#9;c0.4,0.1,0.6,0.5,0.5,0.8c0,0,0,0.1,0,0.1c-0.2,0.5-15.9,52.5-4.9,64.3c6.8,7.4,24,0.5,33.2-3.2c1-0.4,2-0.8,2.8-1.1&#10;&#9;&#9;c36.3-13.9,52.7-25.6,55-28.4l0,0c-0.2-0.2-0.2-0.4-0.2-0.7c0-0.1,0-0.2,0-0.3c-0.2-0.1-1.4-0.7-10.2,3l-0.5,0.2&#10;&#9;&#9;c-0.2,0.1-0.4,0.1-0.6,0c-0.2-0.1-0.3-0.3-0.4-0.5c-0.4-1.6,0.5-3.3,1.4-4.4c1.6-2.2,4.5-4.5,6.8-4.6c0.8,0,1.6,0,2.4,0.1&#10;&#9;&#9;c2.6,0.1,3.6,0.1,3.9-1.4c0.2-1.3-1.1-2.8-2.5-3.5c-1.2-0.6-13.6-1.4-16.1,0.8c-0.8,0.8-1.6,1.8-2.2,2.8c-0.6,1-1.3,1.9-2.1,2.7&#10;&#9;&#9;c-1.7,1.7-3.9,2.6-6.3,3.4c-8.6,3.1-17.4,5.9-26.1,8.3c-4.2,1.2-14.2,3.5-14.3,3.5c-0.2,0.1-0.5,0-0.6-0.2&#10;&#9;&#9;c-0.2-0.2-0.2-0.4-0.2-0.6l5.1-31.1c0-0.4,0.4-0.7,0.8-0.6c0.4,0,0.7,0.4,0.6,0.8c0,0,0,0.1,0,0.1l-4.9,30.1&#10;&#9;&#9;c2.7-0.6,9.9-2.3,13.2-3.3c8.7-2.5,17.5-5.2,26-8.3c2.3-0.8,4.4-1.6,5.8-3.1c0.7-0.8,1.3-1.6,1.9-2.5c0.7-1.1,1.5-2.1,2.4-3.1&#10;&#9;&#9;c3-2.7,15.9-1.9,17.6-1s3.5,2.9,3.2,4.9c-0.4,2.9-3,2.7-5.3,2.6c-0.7-0.1-1.5-0.1-2.2-0.1c-1.6,0.1-4.2,1.9-5.8,4.1&#10;&#9;&#9;c-0.6,0.7-1,1.5-1.2,2.4c6.8-2.9,10.1-3.6,11.2-2.6c0.3,0.2,0.4,0.6,0.5,0.9c0.2,0.1,0.3,0.3,0.4,0.5c0.7,2.4-17.6,15.6-56.1,30.3&#10;&#9;&#9;l-2.8,1.1C205.4,256.6,195.7,260.5,187.7,260.5L187.7,260.5z"/>
	<path class="st1_analyst-13" d="M207.4,201.5h-0.1c-0.4-0.1-0.6-0.4-0.6-0.8l3.3-18.2c0.1-0.4,0.4-0.6,0.8-0.6c0.4,0.1,0.6,0.4,0.6,0.8&#10;&#9;&#9;l-3.3,18.2C208,201.2,207.7,201.5,207.4,201.5z"/>
	<path class="st1_analyst-13" d="M306.1,205.9c-0.4,0-0.7-0.3-0.7-0.7c0-0.2,0.1-0.3,0.2-0.4c2-2.4,0.5-7.9,0.5-8c-0.1-0.3,0.1-0.7,0.4-0.8&#10;&#9;&#9;c0.3-0.1,0.7,0,0.9,0.4c0,0,1.5,3,3.6,3.2c0.3-0.5-0.9-3.4-2.5-6.2c-0.2-0.3-0.1-0.8,0.2-1s0.8-0.1,1,0.2c0,0,0,0,0,0&#10;&#9;&#9;c1.1,1.8,3.5,6.2,2.5,7.7c-0.3,0.4-0.8,0.7-1.4,0.6c-1.1-0.1-2.2-0.7-3-1.5c0.2,2,0.1,4.6-1.3,6.2&#10;&#9;&#9;C306.5,205.7,306.3,205.8,306.1,205.9L306.1,205.9z"/>
	<path class="st0_analyst-13" d="M313.4,373.8c-0.3,0-0.5-0.2-0.6-0.4c-0.1-0.2-0.1-0.2,10.5-41.5c0.1-0.4,0.4-0.6,0.8-0.6&#10;&#9;&#9;c0.4,0.1,0.6,0.4,0.6,0.8c0,0,0,0.1,0,0.1c0,0-10.4,40.7-10.5,41C314,373.6,313.8,373.8,313.4,373.8L313.4,373.8L313.4,373.8z"/>
	<path class="st0_analyst-13" d="M299.3,300.7c-0.1,0-0.3,0-0.4-0.1l-39.6-26c-0.3-0.2-0.4-0.6-0.2-1s0.6-0.4,1-0.2l39.6,26&#10;&#9;&#9;c0.3,0.2,0.4,0.7,0.2,1c0,0,0,0,0,0C299.8,300.6,299.6,300.8,299.3,300.7L299.3,300.7z"/>
</g>
<g id="Screen">
	<path class="st3_analyst-13" d="M313.5,225.3c-5.1,0.1-10.1-2-13.4-5.9c-3.3-4.1-4.6-9.5-3.5-14.7c2-11.3,12.9-20.4,24.1-20.4&#10;&#9;&#9;c5.1-0.1,10.1,2,13.4,5.9c3.3,4.1,4.6,9.5,3.5,14.7l0,0C335.6,216.1,324.8,225.3,313.5,225.3L313.5,225.3z M320.7,185.6&#10;&#9;&#9;c-10.6,0-20.8,8.6-22.8,19.3c-1,4.8,0.1,9.8,3.2,13.6c3.1,3.6,7.6,5.6,12.4,5.4c10.6,0,20.8-8.6,22.8-19.3l0,0&#10;&#9;&#9;c1-4.8-0.1-9.8-3.2-13.6C330,187.4,325.4,185.4,320.7,185.6L320.7,185.6z"/>
	<path class="st1_analyst-13" d="M333.3,233.5h-86c-3.6,0-6.6-3-6.6-6.6c0-0.9,0.2-1.7,0.5-2.5l18.1-43.5c1-2.5,3.4-4.1,6.1-4.1h86&#10;&#9;&#9;c3.6,0,6.6,3,6.6,6.6c0,0.9-0.2,1.7-0.5,2.5l-18.1,43.5C338.3,231.9,335.9,233.5,333.3,233.5z M265.4,178.2c-2.1,0-4,1.3-4.8,3.2&#10;&#9;&#9;l-18.1,43.5c-1.1,2.6,0.1,5.7,2.8,6.8c0.6,0.3,1.3,0.4,2,0.4h86c2.1,0,4-1.3,4.8-3.2l18.1-43.5c1.1-2.6-0.1-5.7-2.8-6.8&#10;&#9;&#9;c-0.6-0.3-1.3-0.4-2-0.4H265.4z"/>
	<path class="st1_analyst-13" d="M290.4,186.8h-23.6c-0.4,0-0.7-0.3-0.7-0.7c0-0.4,0.3-0.7,0.7-0.7h23.6c0.4,0,0.7,0.3,0.7,0.7&#10;&#9;&#9;S290.8,186.8,290.4,186.8C290.4,186.8,290.4,186.8,290.4,186.8L290.4,186.8z"/>
	<path class="st1_analyst-13" d="M287.2,191.9h-23.6c-0.4,0-0.7-0.3-0.7-0.7c0-0.4,0.3-0.7,0.7-0.7h23.6c0.4,0,0.7,0.3,0.7,0.7&#10;&#9;&#9;S287.6,191.9,287.2,191.9C287.2,191.9,287.2,191.9,287.2,191.9L287.2,191.9z"/>
</g>
<g id="Chart">
	<g id="Pie_Chart">
		<path class="st2_analyst-13 targetColor" d="M331.1,277.4c0,25.2,20.4,45.6,45.6,45.6s45.6-20.4,45.6-45.6c0,0,0,0,0,0h-45.6v-45.6&#10;&#9;&#9;&#9;C351.5,231.8,331.1,252.2,331.1,277.4L331.1,277.4z"/>
		<path class="st3_analyst-13" d="M384,225v45.6h45.6C429.6,245.4,409.2,225,384,225z"/>
	</g>
	<path class="st3_analyst-13" d="M154.7,164.5H79.3c-0.4,0-0.7-0.3-0.7-0.7V102c0-0.4,0.3-0.7,0.7-0.7c0.4,0,0.7,0.3,0.7,0.7v61.2h74.7&#10;&#9;&#9;c0.4,0,0.7,0.3,0.7,0.7C155.4,164.2,155.1,164.6,154.7,164.5C154.7,164.6,154.7,164.6,154.7,164.5L154.7,164.5z"/>
	<path class="st3_analyst-13" d="M79.3,164.5c-0.4,0-0.7-0.3-0.7-0.7c0-0.2,0.1-0.4,0.2-0.5l31.7-33.9c0.2-0.2,0.4-0.2,0.6-0.2&#10;&#9;&#9;c0.2,0,0.4,0.1,0.5,0.3l7,11.3l22-24.2c0.2-0.3,0.6-0.4,1-0.2c0.3,0.2,0.4,0.6,0.2,1c0,0.1-0.1,0.1-0.2,0.2L119,142.4&#10;&#9;&#9;c-0.1,0.2-0.4,0.2-0.6,0.2c-0.2,0-0.4-0.1-0.5-0.3l-7-11.3l-31.1,33.3C79.7,164.4,79.5,164.5,79.3,164.5L79.3,164.5z"/>
	<path class="st3_analyst-13" d="M400.1,167.4L400.1,167.4c-0.3,0-0.5-0.2-0.6-0.5l-25.1-69.8L346.7,151c-0.1,0.2-0.3,0.4-0.6,0.4&#10;&#9;&#9;c-0.2,0-0.5-0.1-0.6-0.3l-27.3-35.7L301,143c-0.2,0.3-0.6,0.4-1,0.2l-14.5-8.7c-0.3-0.2-0.5-0.6-0.3-1s0.6-0.5,1-0.3c0,0,0,0,0,0&#10;&#9;&#9;l13.9,8.4l17.4-27.9c0.1-0.2,0.3-0.3,0.6-0.3c0.2,0,0.5,0.1,0.6,0.3l27.3,35.6L373.9,95c0.2-0.3,0.6-0.5,0.9-0.3&#10;&#9;&#9;c0.2,0.1,0.3,0.2,0.3,0.4l25,69.7l12.3-26.1c0.2-0.3,0.6-0.4,1-0.3c0.3,0.2,0.4,0.5,0.3,0.9l-13,27.6&#10;&#9;&#9;C400.6,167.2,400.4,167.3,400.1,167.4L400.1,167.4z"/>
	<circle class="st0_analyst-13" cx="300.4" cy="142.5" r="3.4"/>
	<path class="st3_analyst-13" d="M300.4,146.7c-2.3,0-4.1-1.8-4.1-4.1s1.8-4.1,4.1-4.1c2.3,0,4.1,1.8,4.1,4.1S302.7,146.7,300.4,146.7&#10;&#9;&#9;L300.4,146.7z M300.4,139.8c-1.5,0-2.7,1.2-2.7,2.7s1.2,2.7,2.7,2.7c1.5,0,2.7-1.2,2.7-2.7S301.9,139.8,300.4,139.8&#10;&#9;&#9;C300.4,139.8,300.4,139.8,300.4,139.8L300.4,139.8z"/>
	<circle class="st0_analyst-13" cx="318.2" cy="114.1" r="3.4"/>
	<path class="st3_analyst-13" d="M318.2,118.2c-2.3,0-4.1-1.8-4.1-4.1s1.8-4.1,4.1-4.1c2.3,0,4.1,1.8,4.1,4.1&#10;&#9;&#9;C322.3,116.4,320.4,118.2,318.2,118.2z M318.2,111.4c-1.5,0-2.7,1.2-2.7,2.7s1.2,2.7,2.7,2.7c1.5,0,2.7-1.2,2.7-2.7&#10;&#9;&#9;C320.9,112.6,319.7,111.4,318.2,111.4L318.2,111.4z"/>
	<circle class="st0_analyst-13" cx="374.5" cy="95.4" r="3.4"/>
	<path class="st3_analyst-13" d="M374.5,99.5c-2.3,0-4.1-1.8-4.1-4.1s1.8-4.1,4.1-4.1c2.3,0,4.1,1.8,4.1,4.1S376.8,99.5,374.5,99.5L374.5,99.5z&#10;&#9;&#9; M374.5,92.6c-1.5,0-2.7,1.2-2.7,2.7s1.2,2.7,2.7,2.7c1.5,0,2.7-1.2,2.7-2.7C377.2,93.8,376,92.6,374.5,92.6&#10;&#9;&#9;C374.5,92.6,374.5,92.6,374.5,92.6z"/>
	<circle class="st0_analyst-13" cx="400.1" cy="166.7" r="3.4"/>
	<path class="st3_analyst-13" d="M400.1,170.8c-2.3,0-4.1-1.8-4.1-4.1s1.8-4.1,4.1-4.1c2.3,0,4.1,1.8,4.1,4.1S402.4,170.8,400.1,170.8&#10;&#9;&#9;L400.1,170.8z M400.1,164c-1.5,0-2.7,1.2-2.7,2.7s1.2,2.7,2.7,2.7c1.5,0,2.7-1.2,2.7-2.7C402.8,165.2,401.6,164,400.1,164&#10;&#9;&#9;L400.1,164z"/>
	<circle class="st0_analyst-13" cx="346.1" cy="150.6" r="3.4"/>
	<path class="st3_analyst-13" d="M346.1,154.8c-2.3,0-4.1-1.8-4.1-4.1s1.8-4.1,4.1-4.1c2.3,0,4.1,1.8,4.1,4.1&#10;&#9;&#9;C350.2,152.9,348.4,154.8,346.1,154.8z M346.1,147.9c-1.5,0-2.7,1.2-2.7,2.7s1.2,2.7,2.7,2.7c1.5,0,2.7-1.2,2.7-2.7&#10;&#9;&#9;S347.6,147.9,346.1,147.9L346.1,147.9z"/>
</g>
<g id="Line_of_Texts">
	<path class="st3_analyst-13" d="M404.5,206h-27.2c-0.4,0-0.6-0.3-0.6-0.6c0-0.4,0.3-0.7,0.6-0.7l0,0h27.2c0.4,0,0.6,0.3,0.6,0.7&#10;&#9;&#9;C405.2,205.7,404.9,206,404.5,206z"/>
	<path class="st3_analyst-13" d="M414.8,206h-5.2c-0.4,0-0.6-0.3-0.6-0.6c0-0.4,0.3-0.7,0.6-0.7h5.2c0.4,0,0.6,0.3,0.6,0.7&#10;&#9;&#9;C415.4,205.7,415.1,206,414.8,206z"/>
	<path class="st3_analyst-13" d="M417.2,194.5h-40.1c-0.4,0-0.6-0.3-0.6-0.6c0-0.4,0.3-0.7,0.6-0.7h40.1c0.4,0,0.6,0.3,0.6,0.7&#10;&#9;&#9;C417.9,194.2,417.6,194.5,417.2,194.5z"/>
	<path class="st3_analyst-13" d="M390.2,182.9h-13c-0.4,0-0.6-0.3-0.6-0.6c0-0.4,0.3-0.7,0.6-0.7h13c0.4,0,0.6,0.3,0.6,0.7&#10;&#9;&#9;C390.9,182.6,390.6,182.9,390.2,182.9z"/>
	<path class="st3_analyst-13" d="M421.5,183.4h-23.2c-0.4,0-0.6-0.3-0.6-0.6c0-0.4,0.3-0.7,0.6-0.7h23.2c0.4,0,0.6,0.3,0.6,0.7&#10;&#9;&#9;C422.1,183.1,421.9,183.4,421.5,183.4z"/>
	<path class="st3_analyst-13" d="M404.5,206h-27.2c-0.4,0-0.6-0.3-0.6-0.6c0-0.4,0.3-0.7,0.6-0.7l0,0h27.2c0.4,0,0.6,0.3,0.6,0.7&#10;&#9;&#9;C405.2,205.7,404.9,206,404.5,206z"/>
	<path class="st3_analyst-13" d="M414.8,206h-5.2c-0.4,0-0.6-0.3-0.6-0.6c0-0.4,0.3-0.7,0.6-0.7h5.2c0.4,0,0.6,0.3,0.6,0.7&#10;&#9;&#9;C415.4,205.7,415.1,206,414.8,206z"/>
	<path class="st3_analyst-13" d="M417.2,194.5h-40.1c-0.4,0-0.6-0.3-0.6-0.6c0-0.4,0.3-0.7,0.6-0.7h40.1c0.4,0,0.6,0.3,0.6,0.7&#10;&#9;&#9;C417.9,194.2,417.6,194.5,417.2,194.5z"/>
	<path class="st3_analyst-13" d="M390.2,182.9h-13c-0.4,0-0.6-0.3-0.6-0.6c0-0.4,0.3-0.7,0.6-0.7h13c0.4,0,0.6,0.3,0.6,0.7&#10;&#9;&#9;C390.9,182.6,390.6,182.9,390.2,182.9z"/>
	<path class="st3_analyst-13" d="M421.5,183.4h-23.2c-0.4,0-0.6-0.3-0.6-0.6c0-0.4,0.3-0.7,0.6-0.7h23.2c0.4,0,0.6,0.3,0.6,0.7&#10;&#9;&#9;C422.1,183.1,421.9,183.4,421.5,183.4z"/>
	<path class="st3_analyst-13" d="M421.8,339.4h-44.9c-0.4,0-0.7-0.3-0.7-0.7c0-0.4,0.3-0.7,0.7-0.7h44.9c0.4,0,0.7,0.3,0.7,0.7&#10;&#9;&#9;S422.2,339.3,421.8,339.4C421.8,339.4,421.8,339.4,421.8,339.4z"/>
	<path class="st3_analyst-13" d="M412.1,352.1h-34.6c-0.4,0-0.7-0.3-0.7-0.7c0-0.4,0.3-0.7,0.7-0.7h34.6c0.4,0,0.7,0.3,0.7,0.7&#10;&#9;&#9;S412.5,352.1,412.1,352.1C412.1,352.1,412.1,352.1,412.1,352.1z"/>
	<path class="st3_analyst-13" d="M417,364.4h-40.1c-0.4,0-0.7-0.3-0.7-0.7s0.3-0.7,0.7-0.7c0,0,0,0,0,0H417c0.4,0,0.7,0.3,0.7,0.7&#10;&#9;&#9;C417.7,364.1,417.4,364.4,417,364.4z"/>
	<path class="st3_analyst-13" d="M423.4,351.5H417c-0.4,0-0.7-0.3-0.7-0.7s0.3-0.7,0.7-0.7c0,0,0,0,0,0h6.4c0.4,0,0.7,0.3,0.7,0.7&#10;&#9;&#9;S423.8,351.5,423.4,351.5C423.4,351.5,423.4,351.5,423.4,351.5L423.4,351.5z"/>
	<path class="st3_analyst-13" d="M174,110.3h-19.3c-0.4,0-0.7-0.3-0.7-0.7c0-0.4,0.3-0.7,0.7-0.7H174c0.4,0,0.7,0.3,0.7,0.7&#10;&#9;&#9;C174.7,110,174.4,110.3,174,110.3z"/>
	<path class="st3_analyst-13" d="M174,115.3h-19.3c-0.4,0-0.7-0.3-0.7-0.7c0-0.4,0.3-0.7,0.7-0.7H174c0.4,0,0.7,0.3,0.7,0.7&#10;&#9;&#9;C174.7,115,174.4,115.3,174,115.3z"/>
	<path class="st3_analyst-13" d="M167.5,120.3h-12.8c-0.4,0-0.7-0.3-0.7-0.7c0-0.4,0.3-0.7,0.7-0.7h12.8c0.4,0,0.7,0.3,0.7,0.7&#10;&#9;&#9;C168.2,120,167.9,120.3,167.5,120.3z"/>
</g>
</svg>