<svg version="1.1" id="Layer_1" xmlns="http://www.w3.org/2000/svg" xmlns:xlink="http://www.w3.org/1999/xlink" x="0px" y="0px" viewBox="0 0 500 500" style="width: 151px;" xml:space="preserve" data-imageid="money-motivation-32" imageName="Money Motivation" class="illustrations_image">
<style type="text/css">
	.st0_money-motivation-32{fill:#093F68;}
	.st1_money-motivation-32{fill:#FFC9B0;}
	.st2_money-motivation-32{fill:#68E1FD;}
	.st3_money-motivation-32{fill:#FFFFFF;}
	.st4_money-motivation-32{fill:#725858;}
	.st5_money-motivation-32{fill:#F56132;}
	.st6_money-motivation-32{fill:#70CC40;}
	.st7_money-motivation-32{fill:#FFBC0E;}
	.st8_money-motivation-32{fill:#DFEAEF;}
</style>
<path id="stair" class="st0_money-motivation-32" d="M179.1,413.4H67c-1,0-1.8-0.8-1.8-1.8c0-1,0.8-1.8,1.8-1.8l0,0h110.3v-39.1c0-1,0.8-1.8,1.8-1.8&#10;&#9;h67.3V332c0-1,0.8-1.8,1.8-1.8h59.6v-40.5c0-1,0.8-1.8,1.8-1.8h147.7c1,0,1.8,0.8,1.8,1.8c0,1-0.8,1.8-1.8,1.8H311.5V332&#10;&#9;c0,1-0.8,1.8-1.8,1.8c0,0,0,0,0,0h-59.6v36.7c0,1-0.8,1.8-1.8,1.8H181v39.1C181,412.5,180.2,413.3,179.1,413.4&#10;&#9;C179.2,413.4,179.2,413.4,179.1,413.4z"/>
<g id="character">
	<path class="st1_money-motivation-32" d="M66.1,157.4l-6.8-7.8c0,0,0.8-6-0.3-7.8s-5-4-5.8-3.7s-1.2,2.4-1.2,2.4s-4.8-4.4-6-3.1s-5.3,12.2-2.4,17&#10;&#9;&#9;S61,170.9,61,170.9L66.1,157.4z"/>
	<path class="st0_money-motivation-32" d="M61,172.8c-0.4,0-0.8-0.1-1.2-0.4c-1.5-1.2-14.9-12.1-17.8-17c-3.4-5.7,1.2-17.6,2.6-19.1&#10;&#9;&#9;c0.5-0.5,1.1-0.8,1.8-0.8c1.5-0.1,3.3,1,4.8,2.2c0.3-0.5,0.7-0.8,1.2-1.1c2.2-1.1,6.9,2.5,8.1,4.3s1,5.9,0.7,8.2l6.2,7.1&#10;&#9;&#9;c0.4,0.5,0.6,1.2,0.3,1.8l-5.1,13.5c-0.2,0.6-0.7,1-1.2,1.1C61.3,172.7,61.2,172.7,61,172.8z M47.1,139.2c-1.2,2.4-4,10.9-1.9,14.3&#10;&#9;&#9;c1.9,3.1,10.2,10.4,15,14.4l3.8-10.1l-6-6.9c-0.3-0.4-0.5-0.9-0.4-1.4c0.4-2.7,0.4-5.8,0-6.5c-1-1.1-2.2-2-3.6-2.6&#10;&#9;&#9;c-0.1,0.3-0.2,0.5-0.3,0.8c-0.3,1-1.3,1.6-2.2,1.3c-0.3-0.1-0.5-0.2-0.8-0.4C49.6,140.9,48.4,140,47.1,139.2z"/>
	<path class="st0_money-motivation-32" d="M54.2,157.1c-0.5,0-1-0.2-1.4-0.6c-0.9-1.2-1.4-2.6-1.5-4c-0.5,0.3-1.1,0.6-1.7,0.7c-0.9,0.1-1.9-0.1-2.6-0.8&#10;&#9;&#9;c-2.1-1.8-0.9-6.1,3.4-12.8c0.5-0.9,1.6-1.2,2.5-0.7c0.9,0.5,1.2,1.6,0.7,2.5c0,0.1-0.1,0.1-0.1,0.1c-1.6,2.3-2.8,4.8-3.8,7.5&#10;&#9;&#9;c0.8-0.7,1.4-1.5,2-2.3c0.6-0.8,1.7-1.1,2.5-0.5c0.6,0.4,0.9,1.1,0.8,1.8c-0.3,1.9-0.4,5.1,0.5,6c0.7,0.8,0.6,1.9-0.2,2.6&#10;&#9;&#9;C55,156.9,54.6,157.1,54.2,157.1z M49.7,150L49.7,150z"/>
	<path class="st1_money-motivation-32" d="M218.8,154.8l6.7-7.8c0,0-0.8-6,0.3-7.8s5-4,5.8-3.6s1.3,2.4,1.3,2.4s4.8-4.4,6-3.1s5.3,12.2,2.4,17&#10;&#9;&#9;s-17.4,16.5-17.4,16.5L218.8,154.8z"/>
	<path class="st0_money-motivation-32" d="M223.9,170.2c-0.2,0-0.3,0-0.5-0.1c-0.6-0.2-1-0.6-1.2-1.1l-5.1-13.5c-0.2-0.6-0.1-1.3,0.3-1.8l6.2-7.1&#10;&#9;&#9;c-0.3-2.3-0.5-6.4,0.7-8.2c1-1.5,5.8-5.4,8.1-4.3c0.5,0.2,0.9,0.6,1.2,1.1c1.5-1.2,3.4-2.3,4.8-2.2c0.7,0,1.4,0.3,1.8,0.9&#10;&#9;&#9;c1.4,1.6,6.1,13.5,2.6,19.1c-2.9,4.9-16.3,15.7-17.8,17C224.7,170.1,224.3,170.2,223.9,170.2z M220.9,155.2l3.8,10.1&#10;&#9;&#9;c4.8-4,13.1-11.2,15-14.4c2-3.4-0.7-11.8-1.9-14.3c-1.3,0.8-2.6,1.7-3.7,2.7c-0.5,0.4-1.2,0.6-1.8,0.4c-0.6-0.2-1.1-0.7-1.2-1.3&#10;&#9;&#9;c-0.1-0.3-0.2-0.5-0.3-0.8c-1.3,0.6-2.5,1.5-3.5,2.6c-0.4,0.7-0.4,3.8,0,6.5c0.1,0.5-0.1,1.1-0.4,1.5L220.9,155.2z"/>
	<path class="st0_money-motivation-32" d="M225.1,351.7l-23.4,2.9c-2.8-31.3-7.3-44.3-11.7-49.5c-3.6-4.1-46.8-17.3-46.8-17.3l11.4-28.3&#10;&#9;&#9;c11.1,3,46.9,20.8,56.9,32.4C221,302.9,223.4,338.1,225.1,351.7z"/>
	<path class="st0_money-motivation-32" d="M201.6,356.4c-1,0-1.7-0.7-1.8-1.7c-2.3-26.1-6.1-42.4-11.3-48.5c-2-2.3-24.9-10.3-45.9-16.7&#10;&#9;&#9;c-1-0.3-1.5-1.3-1.2-2.3c0-0.1,0-0.1,0.1-0.1l11.4-28.3c0.3-0.9,1.3-1.3,2.2-1.1c12,3.2,47.8,21.3,57.8,32.9&#10;&#9;&#9;c8.7,10.1,11.6,38.1,13.4,54.8c0.2,2.3,0.5,4.3,0.7,6c0.1,1-0.6,1.9-1.6,2l-23.4,2.9L201.6,356.4z M145.6,286.6&#10;&#9;&#9;c10.3,3.2,42.2,13.2,45.7,17.2c5.6,6.5,9.6,22.5,12,48.6l19.7-2.4c-0.1-1.3-0.3-2.7-0.5-4.2c-1.6-15.2-4.6-43.6-12.5-52.8&#10;&#9;&#9;c-9.4-10.9-42.4-27.4-54.4-31.3L145.6,286.6z"/>
	<path class="st2_money-motivation-32 targetColor" d="M201.6,354.6v16l39.3-7.8c0.4-0.1,0.7-0.5,0.6-1c-0.1-0.2-0.2-0.4-0.4-0.6l-17.9-11.8L201.6,354.6z"/>
	<path class="st0_money-motivation-32" d="M201.6,372.4c-0.4,0-0.8-0.1-1.2-0.4c-0.4-0.3-0.7-0.9-0.7-1.4v-16c0-0.8,0.6-1.6,1.4-1.8l21.6-5.1&#10;&#9;&#9;c0.5-0.1,1,0,1.4,0.2l17.8,11.8c1.3,0.7,1.7,2.3,1,3.6c-0.4,0.7-1,1.1-1.7,1.3l-39.3,7.8C201.9,372.4,201.8,372.4,201.6,372.4z&#10;&#9;&#9; M203.5,356v12.3l34.6-6.9l-15.2-10.1L203.5,356z"/>
	<path class="st2_money-motivation-32 targetColor" d="M176.8,229.1l1.9,38.3l-59.6,5.4l-3.6-39.1l-65.2-64.5l15.9-12.7l55,43.8c10.3-0.3,39.7-1.5,48.1-4.2&#10;&#9;&#9;l49.5-41.8l14,10.5C232.8,164.8,196.7,205.9,176.8,229.1z"/>
	<path class="st0_money-motivation-32" d="M119.1,274.6c-0.4,0-0.8-0.1-1.2-0.4c-0.4-0.3-0.6-0.8-0.7-1.2l-3.5-38.4l-64.7-64.1c-0.7-0.7-0.7-1.9,0-2.6&#10;&#9;&#9;c0-0.1,0.1-0.1,0.2-0.1l15.9-12.7c0.7-0.5,1.6-0.5,2.3,0l54.5,43.4c23.5-0.8,40.8-2.2,46.6-3.9l49.2-41.6c0.7-0.6,1.6-0.6,2.3-0.1&#10;&#9;&#9;l14,10.5c0.4,0.3,0.7,0.8,0.7,1.3c0.1,0.5-0.1,1-0.4,1.4c-0.4,0.4-35.7,40.7-55.5,63.7l1.9,37.5c0.1,1-0.7,1.8-1.7,1.9l-59.6,5.4&#10;&#9;&#9;L119.1,274.6z M53.1,169.3l63.7,63.1c0.3,0.3,0.5,0.7,0.5,1.1l3.4,37.3l56.1-5.1l-1.8-36.5c0-0.5,0.1-0.9,0.4-1.3&#10;&#9;&#9;c17.6-20.4,48-55.2,54.7-62.8l-11.2-8.5l-48.3,40.9c-0.2,0.2-0.4,0.3-0.6,0.3c-8.4,2.7-36.8,3.9-48.6,4.2c-0.4,0-0.9-0.1-1.2-0.4&#10;&#9;&#9;l-53.8-42.9L53.1,169.3z"/>
	<path class="st0_money-motivation-32" d="M96.6,377.2c0,0,19.2-29,24.4-44.2s0.8-60.3,0.8-60.3h27.8c0,0,8,36.2-2.5,63s-32.2,50.7-32.2,50.7L96.6,377.2&#10;&#9;&#9;z"/>
	<path class="st0_money-motivation-32" d="M114.8,388.2c-0.3,0-0.6-0.1-0.8-0.2l-18.3-9.1c-0.9-0.4-1.3-1.5-0.8-2.4c0-0.1,0.1-0.1,0.1-0.2&#10;&#9;&#9;c0.2-0.3,19.1-29,24.1-43.8s0.8-59.1,0.8-59.6c-0.1-1,0.7-1.9,1.7-2c0,0,0.1,0,0.1,0h27.8c0.9,0,1.6,0.6,1.8,1.4&#10;&#9;&#9;c0.3,1.5,8,37.1-2.6,64c-10.5,26.7-32.3,51-32.5,51.3C115.8,388,115.4,388.2,114.8,388.2z M99.2,376.5l15.2,7.6&#10;&#9;&#9;c4.2-4.9,21.9-26.1,30.9-49.1s4-53.5,2.7-60.5h-24.3c0.8,9,3.6,45.3-1.1,59.1C118.1,346.9,103.4,370,99.2,376.5z"/>
	<path class="st2_money-motivation-32 targetColor" d="M96.6,377.2l-9.3,15.1l32.1,19.1c0.6,0.2,1.2,0,1.5-0.6c0.1-0.4,0.1-0.7-0.1-1.1l-5.9-23.4L96.6,377.2z"/>
	<path class="st0_money-motivation-32" d="M119.8,413.4c-0.4,0-0.8-0.1-1.2-0.2l-0.2-0.1l-32.1-19.1c-0.4-0.2-0.7-0.7-0.8-1.1c-0.1-0.5,0-1,0.2-1.4&#10;&#9;&#9;l9.3-15.1c0.5-0.8,1.5-1.1,2.4-0.7l18.3,9.1c0.5,0.2,0.9,0.7,1,1.2l5.8,23.1c0.7,1.5,0.2,3.2-1.3,4&#10;&#9;&#9;C120.7,413.2,120.3,413.4,119.8,413.4L119.8,413.4z M119.2,410.8L119.2,410.8z M89.8,391.7l28.8,17.2l-5.3-21.2l-16-8L89.8,391.7z"/>
	<polygon class="st3_money-motivation-32" points="159.2,198.3 152.5,256.2 132,200.5 &#9;"/>
	<path class="st0_money-motivation-32" d="M152.5,258c-0.8,0-1.5-0.5-1.7-1.2l-20.5-55.7c-0.4-0.9,0.1-2,1.1-2.4c0.2-0.1,0.3-0.1,0.5-0.1l27.1-2.1&#10;&#9;&#9;c0.5,0,1.1,0.2,1.5,0.6c0.4,0.4,0.6,0.9,0.5,1.5l-6.7,57.9c-0.1,0.8-0.8,1.5-1.6,1.6L152.5,258z M134.6,202.1l17,46.2l5.5-48&#10;&#9;&#9;L134.6,202.1z"/>
	<path class="st1_money-motivation-32" d="M139.5,192.5l12.4-1.1l0,0l0.9,9.5c0.1,1.6-1,3-2.6,3.1l-6.6,0.6c-1.6,0.1-3-1-3.1-2.6L139.5,192.5&#10;&#9;&#9;L139.5,192.5z"/>
	<path class="st0_money-motivation-32" d="M145.4,206.3c-3.7,0-6.8-2.8-7.1-6.5l-0.6-7.1c0-0.5,0.1-1,0.4-1.3c0.3-0.4,0.8-0.6,1.2-0.7l12.4-1.1&#10;&#9;&#9;c1-0.1,1.9,0.6,2,1.6c0,0,0,0,0,0l0.6,7.1c0.3,3.9-2.5,7.4-6.5,7.7l0,0l-1.9,0.2C145.9,206.2,145.7,206.3,145.4,206.3z&#10;&#9;&#9; M147.8,204.3L147.8,204.3z M141.5,194.1l0.5,5.3c0.1,0.9,0.5,1.8,1.2,2.4c0.7,0.6,1.6,0.9,2.5,0.8l1.9-0.2&#10;&#9;&#9;c1.9-0.2,3.3-1.8,3.1-3.8c0,0,0,0,0,0l-0.5-5.3L141.5,194.1z"/>
	<path class="st4_money-motivation-32" d="M103.3,169.8c-0.9-0.9-1.6-1.8-2.2-2.9c-6.4-9.9-11.1-20.8-14.1-32.2c-0.9-3.2-1.6-6.6-1-10&#10;&#9;&#9;c1-6.1,5.8-10.8,10.3-14.9c2.4-2.2,3.8-2.2,5.6-5.1c1.9-2.8,4.2-5.3,6.9-7.3c10.3-8.3,24.6-9.3,37.8-9c5.7,0.1,11.5,0.5,16.5,3.1&#10;&#9;&#9;s9.1,7.8,8.6,13.4c6.6-0.6,10.2-0.3,12.3,6.8c3.3,10.9,2.8,41.8,2.8,41.8l-7.9,0.2l-58.3,14c-3.8,0.9-13.1,4.9-16.4,2.7&#10;&#9;&#9;C103.9,170.3,103.6,170.1,103.3,169.8z"/>
	<path class="st0_money-motivation-32" d="M106.9,173c-1.3,0.1-2.6-0.3-3.8-0.9c-0.4-0.3-0.8-0.6-1.1-0.9c-1-1-1.8-2-2.5-3.2&#10;&#9;&#9;c-6.5-10.1-11.3-21.1-14.4-32.7c-0.9-3.4-1.7-7.1-1.1-10.7c1-6.4,5.7-11.2,10.9-16c0.8-0.7,1.6-1.4,2.6-2c1.1-0.6,2.1-1.6,2.7-2.7&#10;&#9;&#9;c2-3,4.5-5.6,7.3-7.8c11-8.8,25.9-9.7,39-9.4c5.8,0.1,11.9,0.5,17.3,3.2c4.7,2.4,9.2,7.2,9.6,13.1c5.7-0.4,9.9,0.6,12.2,8.2&#10;&#9;&#9;c3.4,11,2.9,41.1,2.9,42.3c0,1-0.8,1.8-1.8,1.8l-7.7,0.2L121,169.6c-0.8,0.2-2,0.6-3.3,1C114.2,171.7,110.2,173,106.9,173z&#10;&#9;&#9; M142.2,90.3c-11.3,0-23.5,1.4-32.4,8.6c-2.5,1.9-4.7,4.2-6.5,6.8c-0.9,1.6-2.2,2.9-3.8,3.9c-0.7,0.5-1.5,1-2.1,1.6&#10;&#9;&#9;c-4.7,4.3-8.9,8.6-9.7,13.9c-0.4,2.8,0.1,5.7,1,9.2c2.9,11.2,7.6,21.9,13.9,31.7c0.5,0.9,1.2,1.8,1.9,2.5l0,0&#10;&#9;&#9;c0.2,0.2,0.4,0.4,0.6,0.5c1.8,1.2,8-0.8,11.4-1.9c1.4-0.4,2.6-0.8,3.6-1.1l58.3-14c0.1,0,0.3,0,0.4,0l6.1-0.2&#10;&#9;&#9;c0-6.6,0-30.4-2.7-39.5c-1.8-5.8-4.1-6.1-10.4-5.5c-0.5,0.1-1.1-0.1-1.5-0.5c-0.4-0.4-0.6-0.9-0.5-1.5c0.5-5.1-3.6-9.6-7.6-11.6&#10;&#9;&#9;c-4.8-2.4-10.4-2.7-15.8-2.9C145,90.3,143.7,90.3,142.2,90.3z"/>
	
		<ellipse transform="matrix(0.9793 -0.2026 0.2026 0.9793 -28.0357 39.2788)" class="st1_money-motivation-32" cx="177.8" cy="156.6" rx="12.1" ry="10.4"/>
	<path class="st0_money-motivation-32" d="M177.1,168.9c-6.3,0-11.8-3.8-13-9.5c-0.7-3.3,0.2-6.8,2.3-9.4c2.2-2.8,5.3-4.7,8.9-5.4&#10;&#9;&#9;c7.5-1.6,14.8,2.6,16.1,9.2l0,0c1.4,6.6-3.6,13.3-11.2,14.8C179.2,168.8,178.2,168.9,177.1,168.9z M178.5,147.9&#10;&#9;&#9;c-0.8,0-1.7,0.1-2.5,0.2c-2.6,0.5-5,1.9-6.7,4.1c-1.5,1.8-2.1,4.2-1.6,6.5c1,4.6,6.3,7.5,11.8,6.4s9.3-5.9,8.3-10.5l0,0&#10;&#9;&#9;C187.1,150.6,183.1,147.9,178.5,147.9L178.5,147.9z"/>
	<path class="st1_money-motivation-32" d="M150.4,197c-14.1,2.8-28.6-2.8-37.1-14.4c-9-12.5-8-30.9,4.6-40.9c2.7-2.1,5.8-3.7,8.5-5.8&#10;&#9;&#9;c5.9-4.4,8.5-10,11.3-16.6c0.7-1.7,0.2-1.5,1.6-0.6s2.6,2.1,3.8,3.1c2.8,2.3,5.1,5.2,6.8,8.4c4.9-2.7,8.9-6.8,11.7-11.7&#10;&#9;&#9;c0.1-0.3,0.3-0.6,0.6-0.8c0.6-0.3,1.4-0.4,2-0.1c8.8,2.8,9.7,12.8,11.2,20.5l3.2,15.7C182.9,173.6,170.2,192.9,150.4,197z"/>
	<path class="st0_money-motivation-32" d="M143.3,199.6c-12.4,0-24.1-5.9-31.4-15.9c-10-13.8-7.8-33.3,5-43.4c1.5-1.2,3.1-2.2,4.7-3.2&#10;&#9;&#9;c1.4-0.9,2.6-1.7,3.9-2.6c5.5-4.1,7.9-9.2,10.7-15.9c0.1-0.3,0.2-0.5,0.3-0.7c0.2-0.8,0.7-1.4,1.5-1.6c0.8-0.2,1.5,0.1,2.1,0.6&#10;&#9;&#9;c0.1,0.1,0.3,0.2,0.5,0.4c1,0.7,1.9,1.5,2.9,2.3l1,0.9c2.5,2.1,4.6,4.5,6.3,7.3c3.9-2.5,7.1-6,9.4-10.1c0.3-0.5,0.6-1,1.1-1.4&#10;&#9;&#9;c1.1-0.7,2.5-0.9,3.7-0.4c8.9,2.9,10.6,12,12,19.3c0.2,0.9,0.3,1.7,0.5,2.6l3.2,15.7c4.3,20.8-9.1,41-29.8,45.3l0,0&#10;&#9;&#9;C148.3,199.3,145.8,199.6,143.3,199.6z M150.4,197L150.4,197z M139.2,120.8c-2.8,6.6-5.6,12.1-11.6,16.5c-1.3,1-2.7,1.9-4.1,2.8&#10;&#9;&#9;c-1.5,0.9-3,1.9-4.4,3c-11.2,8.9-13.1,26.1-4.3,38.4c8.1,11,21.8,16.4,35.2,13.7c18.8-3.9,30.8-22.2,27-41l-3.2-15.7&#10;&#9;&#9;c-0.2-0.8-0.3-1.7-0.5-2.6c-1.3-7-2.7-14.3-9.5-16.5l-0.4-0.1l-0.1,0.1c-2.9,5.2-7.2,9.5-12.4,12.5c-0.9,0.5-2,0.2-2.5-0.7&#10;&#9;&#9;c0,0,0,0,0,0c-1.5-3-3.7-5.7-6.3-7.9l-1.1-0.9C140.4,121.8,139.8,121.3,139.2,120.8L139.2,120.8z"/>
	<circle class="st0_money-motivation-32" cx="141.9" cy="155.7" r="3.4"/>
	<circle class="st0_money-motivation-32" cx="168.8" cy="151" r="3.4"/>
	<path class="st0_money-motivation-32" d="M148.8,168.9c-1,0-1.8-0.8-1.9-1.8c0-1,0.8-1.8,1.8-1.9c1.4-0.1,2.7-0.3,4-0.7c-1.1-2.3-2.5-4.4-4.1-6.3&#10;&#9;&#9;c-0.6-0.8-0.5-1.9,0.3-2.6s1.9-0.5,2.6,0.3l0,0c2.6,3.1,5.5,7.4,5,9.8c-0.2,0.8-0.7,1.4-1.4,1.8C153.1,168.4,151,168.8,148.8,168.9&#10;&#9;&#9;L148.8,168.9z M152.9,165.1L152.9,165.1z"/>
	<path class="st0_money-motivation-32" d="M122.3,148c-2,0-3.7-1.6-3.7-3.6c0-1.9,1.5-3.6,3.4-3.7l16.1-1.5c2-0.2,3.8,1.3,4,3.3s-1.3,3.8-3.3,4&#10;&#9;&#9;l-16.1,1.5H122.3z"/>
	<path class="st0_money-motivation-32" d="M152.8,143.6c-2,0-3.7-1.6-3.7-3.6c0-1.7,1.2-3.3,2.9-3.6l15.7-3.6c2-0.4,3.9,0.8,4.3,2.8&#10;&#9;&#9;c0.4,1.9-0.8,3.9-2.7,4.3l-15.7,3.6C153.4,143.5,153.1,143.6,152.8,143.6z"/>
	<path class="st0_money-motivation-32" d="M127.6,167.8c-2.6,0-4.8-1.8-5.3-4.3l-2-9.9c-0.2-1,0.4-2,1.4-2.2l23-4.8c1-0.2,2,0.4,2.2,1.4l2,9.9&#10;&#9;&#9;c0.3,1.4,0,2.9-0.8,4.1c-0.8,1.2-2,2-3.4,2.3l0,0l-15.9,3.3C128.4,167.8,128,167.8,127.6,167.8z M124.2,154.6l1.7,8.1&#10;&#9;&#9;c0.2,1,1.1,1.6,2.1,1.4l15.9-3.3c1-0.2,1.6-1.1,1.4-2.1l-1.7-8.1L124.2,154.6z M144.3,162.6L144.3,162.6z"/>
	<path class="st0_money-motivation-32" d="M156.2,161.9c-2.6,0-4.8-1.8-5.3-4.3l-2-9.9c-0.2-1,0.4-2,1.4-2.2l23-4.8c0.5-0.1,1,0,1.4,0.3&#10;&#9;&#9;c0.4,0.3,0.7,0.7,0.8,1.2l2.1,9.9c0.6,2.9-1.3,5.8-4.2,6.4l0,0l-15.9,3.3C157,161.9,156.6,161.9,156.2,161.9z M152.8,148.7l1.7,8.1&#10;&#9;&#9;c0.2,1,1.1,1.6,2.1,1.4l15.9-3.3c1-0.2,1.6-1.1,1.4-2.1l-1.7-8.1L152.8,148.7z M172.9,156.7L172.9,156.7z"/>
	<path class="st0_money-motivation-32" d="M103.1,164.5c-1,0-1.8-0.8-1.8-1.8c0-0.9,0.6-1.6,1.4-1.8l20.1-4.1c1-0.2,1.9,0.5,2.1,1.5&#10;&#9;&#9;c0.1,0.9-0.4,1.8-1.4,2.1l-20.1,4.2C103.3,164.5,103.2,164.5,103.1,164.5z"/>
	<path class="st1_money-motivation-32" d="M114.1,180.4c0,0-9.8,2.6-13.5-7.9c-4.9-13.9,10.6-9.1,10.6-9.1"/>
	<path class="st0_money-motivation-32" d="M111.4,182.6c-4.2,0-9.9-2-12.5-9.4c-1.6-4.6-1.4-8,0.7-10.2c3.7-3.8,11.3-1.5,12.2-1.2c1,0.3,1.5,1.4,1.1,2.3&#10;&#9;&#9;c-0.3,0.9-1.3,1.4-2.2,1.2c-1.6-0.5-6.6-1.5-8.4,0.3c-1.3,1.3-0.6,4.2,0.1,6.4c3.1,8.8,11,6.8,11.3,6.7c1-0.3,2,0.3,2.3,1.3&#10;&#9;&#9;s-0.3,2-1.3,2.3C113.5,182.5,112.4,182.6,111.4,182.6z"/>
	<path class="st0_money-motivation-32" d="M156.7,174.5l-14.8-2.8c0,0-3.4,10.2,2.4,14.3C152,191.3,156.7,174.5,156.7,174.5z"/>
	<path class="st5_money-motivation-32" d="M144.7,205.3l6.3-0.6c0.8-0.1,1.5,0.5,1.6,1.3l0.4,4.3c0.1,0.8-0.5,1.5-1.3,1.6l-6.3,0.6&#10;&#9;&#9;c-0.8,0.1-1.5-0.5-1.6-1.3l-0.4-4.3C143.3,206,143.9,205.3,144.7,205.3z"/>
	<path class="st0_money-motivation-32" d="M146.3,214.2c-2.3,0-4.3-1.8-4.5-4.1l-0.2-1.9c-0.2-2.5,1.6-4.7,4.1-4.9c0,0,0,0,0,0l3.9-0.4&#10;&#9;&#9;c2.5-0.2,4.7,1.6,4.9,4.1c0,0,0,0,0,0l0.2,1.9c0.2,2.5-1.6,4.7-4.1,4.9l-3.9,0.4L146.3,214.2z M150,206.6L150,206.6l-3.9,0.4&#10;&#9;&#9;c-0.5,0-0.8,0.5-0.8,0.9l0.2,1.9c0,0.2,0.1,0.4,0.3,0.6c0.2,0.2,0.4,0.2,0.6,0.2l3.9-0.4l0,0c0.5,0,0.8-0.5,0.8-0.9l-0.2-1.9&#10;&#9;&#9;c0-0.2-0.1-0.4-0.3-0.6C150.4,206.7,150.2,206.6,150,206.6L150,206.6z"/>
	<polygon class="st5_money-motivation-32" points="154.5,233.4 152.5,256.2 145.7,236.4 145.9,212.4 151.1,212 &#9;"/>
	<path class="st0_money-motivation-32" d="M152.5,258c-0.8,0-1.5-0.5-1.7-1.2L144,237c-0.1-0.2-0.1-0.4-0.1-0.6l0.1-24c0-0.9,0.7-1.7,1.7-1.8l5.3-0.5&#10;&#9;&#9;c1-0.1,1.8,0.6,2,1.5l3.4,21.4c0,0.2,0,0.3,0,0.5l-2.1,22.8c-0.1,0.9-0.7,1.6-1.6,1.7L152.5,258z M147.5,236.1l3.9,11.4l1.3-14&#10;&#9;&#9;l-3.1-19.5l-1.9,0.2L147.5,236.1z"/>
	<path class="st0_money-motivation-32" d="M230.7,154.5c-0.4,0-0.9-0.2-1.2-0.4c-0.8-0.7-0.9-1.8-0.2-2.6c0.8-0.9,0.8-4.1,0.5-6c-0.2-1,0.5-1.9,1.5-2.1&#10;&#9;&#9;c0.7-0.1,1.4,0.2,1.8,0.8c0.6,0.9,1.2,1.7,2,2.3c-0.9-2.6-2.2-5.2-3.8-7.5c-0.6-0.8-0.4-2,0.4-2.6s2-0.4,2.6,0.4&#10;&#9;&#9;c0,0,0.1,0.1,0.1,0.1c4.4,6.7,5.5,11,3.4,12.8c-0.7,0.6-1.7,0.9-2.6,0.8c-0.6-0.1-1.2-0.3-1.7-0.7c-0.1,1.5-0.6,2.8-1.5,4&#10;&#9;&#9;C231.8,154.3,231.3,154.5,230.7,154.5z"/>
</g>
<g id="money">
	<path class="st6_money-motivation-32" d="M363,153.3c9.9-3,19.9-5.2,30.1-6.8c3.3-0.5,2.1,2.1,1.7,4.4c-0.5,2.8-1.1,5.6-1.7,8.4&#10;&#9;&#9;c-0.7,2.8-1.4,9.6-3.9,11c-2.3,1.2-6.4,1.4-9,1.5s-5.7-0.2-7.6-2.2C371,168,363.6,153.1,363,153.3z"/>
	<path class="st0_money-motivation-32" d="M379.2,173.6c-2.5,0-5.8-0.4-8-2.8c-0.9-0.9-2.4-3.6-5.4-9.1c-1.4-2.6-3.3-6.1-4-7c-0.8-0.6-1-1.8-0.4-2.6&#10;&#9;&#9;c0.2-0.3,0.6-0.6,0.9-0.7l0,0c9.9-3,20.1-5.3,30.4-6.9c1.3-0.3,2.6,0,3.5,0.9c1.2,1.3,0.8,3.1,0.4,4.6c-0.1,0.4-0.2,0.7-0.2,1.1&#10;&#9;&#9;c-0.5,2.9-1.1,5.7-1.8,8.5c-0.1,0.5-0.3,1.2-0.4,2c-0.9,4.7-1.8,8.8-4.4,10.1s-6.4,1.6-9.8,1.7L379.2,173.6z M365.9,154.3&#10;&#9;&#9;c0.8,1.3,1.8,3.1,3.1,5.7c1.7,3.1,4.2,7.7,4.8,8.4c1.1,1.2,3.1,1.7,6.2,1.6c2-0.1,6.2-0.2,8.2-1.3c1.2-0.6,2.1-5.5,2.5-7.6&#10;&#9;&#9;c0.2-0.9,0.3-1.6,0.5-2.2c0.6-2.8,1.2-5.6,1.7-8.3c0.1-0.4,0.2-0.8,0.3-1.2s0.2-0.8,0.2-1.1h-0.1&#10;&#9;&#9;C384.1,149.7,374.9,151.7,365.9,154.3z M363.4,155.1L363.4,155.1z"/>
	<path class="st6_money-motivation-32" d="M356.6,229.9c-8.6-2.1-19-7.1-15.7-17.6c3.1-10.1,7.5-20.1,14.8-27.6c4.8-4.9,10.8-8.4,17.5-10&#10;&#9;&#9;c5.3-1.2,13.3-2,18.6-0.6c10.8,3.1,19.2,11.8,24.2,21.6c4.3,8.3,9.3,23.8,1.7,31.6c-6.3,6.5-19.1,5.3-27.4,5.4&#10;&#9;&#9;C379.1,232.8,367.6,232.6,356.6,229.9z"/>
	<path class="st0_money-motivation-32" d="M397.4,234.5h-3.2c-1.3,0-2.6,0-3.7,0c-11.1,0.1-22.9,0-34.3-2.8l0,0c-5.7-1.4-13.1-4.2-16.2-9.8&#10;&#9;&#9;c-1.7-3.1-2-6.8-0.8-10.1c3.9-12.6,8.8-21.6,15.2-28.4c5-5.2,11.4-8.9,18.4-10.5c5.4-1.3,13.8-2.1,19.5-0.5&#10;&#9;&#9;c10.3,2.9,19.5,11.1,25.4,22.5c2,3.9,11.3,23.6,1.4,33.7C413.9,233.9,405.1,234.5,397.4,234.5z M391.5,230.8h2.7&#10;&#9;&#9;c7.8,0.1,17.4,0.2,22.3-4.8c6.3-6.5,2.9-19.9-2-29.5c-5.3-10.5-13.8-18-23.1-20.6c-4.8-1.4-12.3-0.7-17.7,0.6&#10;&#9;&#9;c-6.3,1.5-12.1,4.8-16.6,9.5c-6.1,6.3-10.6,14.9-14.4,26.9c-0.9,2.4-0.7,5,0.5,7.2c2,3.5,6.9,6.3,13.9,8.1&#10;&#9;&#9;c11,2.7,22.5,2.8,33.4,2.7L391.5,230.8z"/>
	<path class="st7_money-motivation-32" d="M329.3,275.5h45c1.2,0,2.2,1,2.2,2.2v9.8c0,1.2-1,2.2-2.2,2.2h-45c-1.2,0-2.2-1-2.2-2.2v-9.8&#10;&#9;&#9;C327.1,276.5,328.1,275.5,329.3,275.5z"/>
	<path class="st0_money-motivation-32" d="M372.5,291.5h-41.4c-3.2,0-5.8-2.6-5.8-5.8v-6.1c0-3.2,2.6-5.8,5.8-5.8h41.4c3.2,0,5.8,2.6,5.8,5.8v6.1&#10;&#9;&#9;C378.3,288.9,375.7,291.5,372.5,291.5z M331.1,277.3c-1.2,0-2.2,1-2.2,2.2v6.1c0,1.2,1,2.2,2.2,2.2h41.4c1.2,0,2.2-1,2.2-2.2v-6.1&#10;&#9;&#9;c0-1.2-1-2.2-2.2-2.2H331.1z"/>
	<path class="st7_money-motivation-32" d="M325.9,261.4h45c1.2,0,2.2,1,2.2,2.2v9.8c0,1.2-1,2.2-2.2,2.2h-45c-1.2,0-2.2-1-2.2-2.2v-9.8&#10;&#9;&#9;C323.7,262.4,324.6,261.4,325.9,261.4z"/>
	<path class="st0_money-motivation-32" d="M369,277.3h-41.3c-3.2,0-5.8-2.6-5.8-5.8v-6.1c0-3.2,2.6-5.8,5.8-5.8H369c3.2,0,5.8,2.6,5.8,5.8v6.1&#10;&#9;&#9;C374.8,274.7,372.2,277.3,369,277.3z M327.6,263.2c-1.2,0-2.2,1-2.2,2.2v6.1c0,1.2,1,2.2,2.2,2.2H369c1.2,0,2.2-1,2.2-2.2v-6.1&#10;&#9;&#9;c0-1.2-1-2.2-2.2-2.2H327.6z"/>
	<path class="st7_money-motivation-32" d="M335.2,247.3h45c1.2,0,2.2,1,2.2,2.2v9.7c0,1.2-1,2.2-2.2,2.2h-45c-1.2,0-2.2-1-2.2-2.2v-9.7&#10;&#9;&#9;C333,248.2,334,247.3,335.2,247.3z"/>
	<path class="st0_money-motivation-32" d="M378.4,263.2h-41.4c-3.2,0-5.8-2.6-5.8-5.8v-6.1c0-3.2,2.6-5.8,5.8-5.8h41.4c3.2,0,5.8,2.6,5.8,5.8v6.1&#10;&#9;&#9;C384.3,260.6,381.6,263.2,378.4,263.2z M337.1,249.1c-1.2,0-2.2,1-2.2,2.2v6.1c0,1.2,1,2.2,2.2,2.2h41.4c1.2,0,2.2-1,2.2-2.2v-6.1&#10;&#9;&#9;c0-1.2-1-2.2-2.2-2.2H337.1z"/>
	<path class="st7_money-motivation-32" d="M325.9,233.1h45c1.2,0,2.2,1,2.2,2.2v9.8c0,1.2-1,2.2-2.2,2.2h-45c-1.2,0-2.2-1-2.2-2.2v-9.8&#10;&#9;&#9;C323.7,234.1,324.6,233.1,325.9,233.1z"/>
	<path class="st0_money-motivation-32" d="M369,249.1h-41.3c-3.2,0-5.8-2.6-5.8-5.8v-6.1c0-3.2,2.6-5.8,5.8-5.8H369c3.2,0,5.8,2.6,5.8,5.8v6.1&#10;&#9;&#9;C374.8,246.5,372.2,249.1,369,249.1z M327.7,235c-1.2,0-2.2,1-2.2,2.2v6.1c0,1.2,1,2.2,2.2,2.2H369c1.2,0,2.2-1,2.2-2.2v-6.1&#10;&#9;&#9;c0-1.2-1-2.2-2.2-2.2H327.7z"/>
	<path class="st7_money-motivation-32" d="M394.6,275.5h45c1.2,0,2.2,1,2.2,2.2v9.8c0,1.2-1,2.2-2.2,2.2h-45c-1.2,0-2.2-1-2.2-2.2v-9.8&#10;&#9;&#9;C392.4,276.5,393.4,275.5,394.6,275.5z"/>
	<path class="st0_money-motivation-32" d="M437.8,291.5h-41.4c-3.2,0-5.8-2.6-5.8-5.8v-6.1c0-3.2,2.6-5.8,5.8-5.8h41.4c3.2,0,5.8,2.6,5.8,5.8v6.1&#10;&#9;&#9;C443.6,288.9,441,291.5,437.8,291.5z M396.4,277.3c-1.2,0-2.2,1-2.2,2.2v6.1c0,1.2,1,2.2,2.2,2.2c0,0,0,0,0,0h41.4&#10;&#9;&#9;c1.2,0,2.2-1,2.2-2.2v-6.1c0-1.2-1-2.2-2.2-2.2H396.4z"/>
	<path class="st7_money-motivation-32" d="M391.1,261.4h45c1.2,0,2.2,1,2.2,2.2v9.8c0,1.2-1,2.2-2.2,2.2h-45c-1.2,0-2.2-1-2.2-2.2v-9.8&#10;&#9;&#9;C389,262.4,389.9,261.4,391.1,261.4z"/>
	<path class="st0_money-motivation-32" d="M434.3,277.3H393c-3.2,0-5.8-2.6-5.8-5.8v-6.1c0-3.2,2.6-5.8,5.8-5.8h41.4c3.2,0,5.8,2.6,5.8,5.8v6.1&#10;&#9;&#9;C440.2,274.7,437.6,277.3,434.3,277.3C434.3,277.3,434.3,277.3,434.3,277.3z M393,263.2c-1.2,0-2.2,1-2.2,2.2v6.1&#10;&#9;&#9;c0,1.2,1,2.2,2.2,2.2h41.4c1.2,0,2.2-1,2.2-2.2v-6.1c0-1.2-1-2.2-2.2-2.2H393z"/>
	<path class="st7_money-motivation-32" d="M391.4,247.3h45c1.2,0,2.2,1,2.2,2.2v9.7c0,1.2-1,2.2-2.2,2.2h-45c-1.2,0-2.2-1-2.2-2.2v-9.7&#10;&#9;&#9;C389.2,248.2,390.2,247.3,391.4,247.3z"/>
	<path class="st0_money-motivation-32" d="M434.6,263.2h-41.4c-3.2,0-5.8-2.6-5.8-5.8v-6.1c0-3.2,2.6-5.8,5.8-5.8h41.4c3.2,0,5.8,2.6,5.8,5.8v6.1&#10;&#9;&#9;C440.4,260.6,437.8,263.2,434.6,263.2z M393.2,249.1c-1.2,0-2.2,1-2.2,2.2v6.1c0,1.2,1,2.2,2.2,2.2h41.4c1.2,0,2.2-1,2.2-2.2v-6.1&#10;&#9;&#9;c0-1.2-1-2.2-2.2-2.2H393.2z"/>
	<path class="st7_money-motivation-32" d="M391.1,233.1h45c1.2,0,2.2,1,2.2,2.2v9.8c0,1.2-1,2.2-2.2,2.2h-45c-1.2,0-2.2-1-2.2-2.2v-9.8&#10;&#9;&#9;C389,234.1,389.9,233.1,391.1,233.1z"/>
	<path class="st0_money-motivation-32" d="M434.3,249.1H393c-3.2,0-5.8-2.6-5.8-5.8v-6.1c0-3.2,2.6-5.8,5.8-5.8h41.4c3.2,0,5.8,2.6,5.8,5.8v6.1&#10;&#9;&#9;C440.2,246.5,437.6,249.1,434.3,249.1C434.3,249.1,434.3,249.1,434.3,249.1z M393,235c-1.2,0-2.2,1-2.2,2.2v6.1&#10;&#9;&#9;c0,1.2,1,2.2,2.2,2.2h41.4c1.2,0,2.2-1,2.2-2.2v-6.1c0-1.2-1-2.2-2.2-2.2H393z"/>
	<path class="st0_money-motivation-32" d="M385.2,166.5c2.3-0.2,4.7-0.4,6.8,0.5s3.9,3.1,3.3,5.4c-0.1,0.5-0.4,1-0.8,1.3c-0.3,0.2-0.7,0.3-1.1,0.4&#10;&#9;&#9;c-4.5,0.8-9.1,1.4-13.7,1.7c-3.3,0.2-11.6,1.4-11.9-3.9c-0.3-4.8,4.1-4.1,7.2-4.6C378.5,166.7,381.9,166.8,385.2,166.5z"/>
	<path class="st0_money-motivation-32" d="M375.2,177.8c-2.6,0-5.4-0.4-7.2-1.9c-1.2-1-1.9-2.5-1.9-4c-0.4-5.7,4.5-6.1,7.2-6.4c0.5-0.1,1.1-0.1,1.6-0.2&#10;&#9;&#9;c2.1-0.3,4.3-0.5,6.4-0.5c1.3-0.1,2.6-0.1,3.8-0.2l0,0c2.3-0.2,5.1-0.4,7.6,0.6c2.7,1.1,5.2,4.1,4.4,7.5c-0.2,1-0.8,1.8-1.6,2.4&#10;&#9;&#9;c-0.5,0.3-1.1,0.5-1.7,0.6c-4.6,0.9-9.2,1.4-13.9,1.8l-1,0.1C377.9,177.7,376.5,177.8,375.2,177.8z M385.4,168.3&#10;&#9;&#9;c-1.3,0.1-2.7,0.2-4,0.2c-2,0-4,0.2-6,0.5c-0.6,0.1-1.2,0.1-1.8,0.2c-3.5,0.3-4,0.6-3.9,2.5c0,0.6,0.2,1.1,0.7,1.4&#10;&#9;&#9;c1.7,1.4,6,1.1,8.3,0.9l1-0.1c4.5-0.3,9-0.9,13.5-1.7l0.4-0.1c0,0,0-0.1,0-0.2c0.3-1.3-0.9-2.7-2.2-3.2&#10;&#9;&#9;C389.6,167.9,387.3,168.1,385.4,168.3L385.4,168.3z"/>
	<path class="st0_money-motivation-32" d="M380.5,219v-2.4c-0.9-0.2-1.7-0.4-2.6-0.7c-1.6-0.5-3-1.6-4-3c-0.8-1.2-1.2-2.7-1.1-4.1h4.7&#10;&#9;&#9;c0.1,1.7,1.3,3.1,2.9,3.5v-6.4c-1-0.3-1.9-0.5-2.8-0.8c-1-0.3-2-0.8-2.8-1.6c-0.8-0.8-1.4-1.9-1.5-3c-0.3-1.4-0.2-2.8,0.3-4.1&#10;&#9;&#9;c0.7-1.9,2.2-3.4,4.2-4.1c0.8-0.3,1.6-0.5,2.4-0.6l0.3-0.1v-3.2h4.4v0.3c0,0.9,0,1.8,0,2.8c0,0.2,0.1,0.3,0.3,0.3&#10;&#9;&#9;c1.5,0.3,2.9,1,4.1,1.9c1.3,1,2.1,2.5,2.4,4.1c0.1,0.4,0.1,0.9,0.2,1.4H387c0-1.3-0.8-2.6-2.1-3.1v6l0.5,0.1&#10;&#9;&#9;c1.3,0.3,2.6,0.7,3.8,1.2c1.9,0.8,3.1,2.6,3.3,4.6c0.5,3.5-1.5,6.8-4.8,7.9c-0.9,0.3-1.8,0.5-2.8,0.8v2.4H380.5z M385,206.8v5.6&#10;&#9;&#9;c0.7-0.1,1.4-0.4,2-0.9c1-0.9,1.2-2.4,0.3-3.4c-0.1-0.2-0.3-0.3-0.5-0.4C386.3,207.3,385.6,207,385,206.8z M380.5,201v-5.4&#10;&#9;&#9;c-0.6,0.3-1.1,0.5-1.7,0.9c-1,0.7-1.3,2.2-0.6,3.2c0.2,0.3,0.4,0.5,0.7,0.7C379.4,200.6,379.9,200.8,380.5,201z"/>
</g>
<g id="sprakling">
	<path class="st8_money-motivation-32" d="M324.2,185.8c-0.9,0-1.6-0.6-1.8-1.4c-2.1-10.2-8.7-10.4-9-10.4c-0.9,0-1.7-0.7-1.8-1.6&#10;&#9;&#9;c-0.1-0.9,0.5-1.8,1.3-2c9.3-2.5,9.1-9.6,9.1-9.9c0-1,0.8-1.9,1.8-1.9c0.9,0,1.7,0.6,1.9,1.5c1.6,9.6,8.4,9.4,9.2,9.3&#10;&#9;&#9;c1-0.1,1.9,0.6,2,1.6c0.1,1-0.6,1.9-1.6,2c-8.2,1-9.2,10.7-9.2,11.1c-0.1,0.9-0.8,1.6-1.7,1.7L324.2,185.8z M318.7,172&#10;&#9;&#9;c2.3,1.4,4.1,3.4,5.3,5.8c1.1-2.5,2.8-4.6,5-6.2c-2.1-1.1-3.8-2.8-4.9-4.9C322.8,168.9,320.9,170.7,318.7,172z"/>
	<path class="st8_money-motivation-32" d="M345.5,138c-0.9,0-1.6-0.6-1.8-1.4c-1.6-7.8-6.6-8-6.8-8c-1,0-1.8-0.8-1.8-1.8c0-0.8,0.6-1.6,1.4-1.8&#10;&#9;&#9;c7.1-1.9,7-7.3,7-7.5c0-1,0.8-1.9,1.8-1.9c0.9,0,1.7,0.6,1.9,1.5c1.2,7.3,6.3,7.1,6.9,7.1c1-0.1,1.9,0.6,2,1.7c0.1,1-0.6,1.9-1.6,2&#10;&#9;&#9;c-6.2,0.7-7,8.2-7,8.5c-0.1,0.9-0.8,1.6-1.7,1.7L345.5,138z M341.8,126.6c1.4,1,2.6,2.3,3.5,3.8c0.8-1.6,1.9-3,3.3-4.1&#10;&#9;&#9;c-1.3-0.8-2.4-1.9-3.2-3.3C344.5,124.5,343.3,125.7,341.8,126.6L341.8,126.6z"/>
	<path class="st8_money-motivation-32" d="M438.3,180.6c-0.9,0-1.6-0.6-1.8-1.4c-2.9-13.6-11.7-13.8-12.1-13.8c-1,0-1.8-0.8-1.8-1.8&#10;&#9;&#9;c0-0.8,0.6-1.6,1.4-1.8c12.4-3.3,12.1-12.9,12.1-13.3c-0.1-1,0.6-1.9,1.7-2c1-0.1,1.9,0.6,2,1.6c2.1,13,12,12.4,12.4,12.4&#10;&#9;&#9;c1-0.1,1.9,0.6,2,1.6c0.1,1-0.6,1.9-1.6,2c-11,1.3-12.2,14.2-12.3,14.7c-0.1,0.9-0.8,1.6-1.7,1.7L438.3,180.6z M430.3,163.2&#10;&#9;&#9;c3.7,2,6.1,5.8,7.6,9.1c1.4-3.9,4-7.3,7.5-9.6c-3.3-1.5-5.9-4.2-7.4-7.4C436.4,158.7,433.7,161.5,430.3,163.2L430.3,163.2z"/>
</g>
</svg>