<svg id="_0122_project_presentation" xmlns="http://www.w3.org/2000/svg" viewBox="0 0 500 500" data-imageid="presentation-74" imageName="Presentation" class="illustrations_image" style="width: 151px;"><defs><style>.cls-1_presentation-74,.cls-2_presentation-74,.cls-3_presentation-74{fill:#fff;}.cls-4_presentation-74{fill:#f4a28c;}.cls-5_presentation-74{opacity:.03;}.cls-5_presentation-74,.cls-6_presentation-74{fill:#000001;}.cls-7_presentation-74{fill:#a5a5a5;opacity:.39;}.cls-8_presentation-74{fill:#e6e6e6;}.cls-9_presentation-74{fill:#ce8172;opacity:.31;}.cls-10_presentation-74{opacity:.58;}.cls-10_presentation-74,.cls-11_presentation-74,.cls-12_presentation-74{fill:#68e1fd;}.cls-2_presentation-74,.cls-6_presentation-74{opacity:.08;}.cls-3_presentation-74{opacity:.46;}.cls-13_presentation-74{fill:#24285b;}.cls-11_presentation-74{opacity:.73;}.cls-14_presentation-74{fill:#ffd200;}</style></defs><g id="presentation"><rect class="cls-8_presentation-74" x="51.65" y="47.4" width="354.9" height="292.36"/><path class="cls-6_presentation-74" d="m372.69,134.15s-12.3,2.08-7.28,16.11,9.64,33.23-3.16,38.56c-12.8,5.33-56.88-6.11-73.94,53.47l-31.28-55.22s-9.95,12.06,0,38.37c9.12,24.11,16.76,87.96,45.35,94.6,5,1.16,8.82,5.18,9.33,10.28l.94,9.44,25.43-.57,41.07-153.93,10.39-31.73-16.85-19.38Z"/><circle class="cls-13_presentation-74" cx="85.64" cy="74.92" r="7.93"/><circle class="cls-12_presentation-74" cx="109.22" cy="74.92" r="7.93"/><circle class="cls-14_presentation-74" cx="131.44" cy="74.92" r="7.93"/><circle class="cls-1_presentation-74" cx="156.46" cy="187.82" r="61.94"/><path class="cls-14_presentation-74" d="m156.46,125.88v61.94l60.65-12.61s-8.46-49.73-60.65-49.33Z"/><path class="cls-13_presentation-74" d="m156.46,187.82l-34.43,51.49s34.72,26.42,74.93-4.64c0,0,27.51-19.94,20.16-59.47l-60.65,12.61Z"/><rect class="cls-7_presentation-74" x="127.15" y="273.87" width="67.3" height="22.35"/><rect class="cls-7_presentation-74" x="246" y="150.26" width="79.36" height="15.09"/><rect class="cls-1_presentation-74" x="216.73" y="67" width="158.17" height="15.85"/></g><ellipse id="sd" class="cls-5_presentation-74" cx="367.42" cy="439.92" rx="114.82" ry="12.68"/><g id="plant"><path class="cls-10_presentation-74" d="m270.82,420.37s-13.27-3.62-16.16-15.97c0,0,20.56-4.16,21.14,17.06l-4.99-1.09Z"/><path class="cls-11_presentation-74" d="m272.44,419.06s-9.27-14.66-1.11-28.36c0,0,15.63,9.93,8.69,28.39l-7.57-.03Z"/><path class="cls-12_presentation-74" d="m274.83,419.07s4.9-15.48,19.7-18.41c0,0,2.78,10.05-9.59,18.45l-10.12-.04Z"/><polygon class="cls-13_presentation-74" points="265.21 418.72 267.9 437.12 284.84 437.19 287.34 418.81 265.21 418.72"/></g><g id="dollar"><rect class="cls-14_presentation-74" x="17.76" y="289.05" width="89.75" height="77.09"/><path class="cls-1_presentation-74" d="m64.05,305.28c1.14,0,1.49.4,1.49,1.53v2.43c4.55.64,7.18,2.92,9.11,6.88.59,1.19.35,1.83-.99,2.43l-2.43,1.09c-1.14.54-1.68.3-2.33-.89-1.34-2.57-2.97-3.81-6.34-3.81-4.21,0-6.14,1.24-6.14,4.06,0,1.83,1.68,2.97,3.42,3.32.84.2,2.03.4,3.56.54,2.77.25,4.16.45,6.58,1.29,1.24.45,2.18.94,2.92,1.58,1.39,1.29,2.62,3.76,2.62,6.93,0,5.4-3.61,9.06-10,10v2.57c0,1.14-.35,1.53-1.49,1.53h-2.72c-1.14,0-1.53-.4-1.53-1.53v-2.52c-4.95-.64-8.27-3.17-9.9-7.62-.4-1.09,0-1.83,1.14-2.28l2.43-.89c1.24-.45,1.78-.15,2.33,1.09,1.09,2.77,3.32,4.16,6.68,4.16,4.55,0,6.83-1.44,6.83-4.36,0-1.53-.69-2.47-2.13-3.07-1.44-.54-2.67-.74-4.9-.94-2.72-.25-4.26-.54-6.63-1.44-1.19-.45-2.13-.99-2.87-1.63-1.49-1.34-2.67-3.71-2.67-6.73,0-5.35,3.37-8.91,9.7-9.75v-2.43c0-1.14.4-1.53,1.53-1.53h2.72Z"/></g><g id="person"><path class="cls-12_presentation-74" d="m332.51,190.8s-25.23,35.08-30.36,64.68l-30.68-57.44-10.87,6.93s27.26,89.99,50.33,93.3c23.07,3.31,41.7-60.7,41.7-60.7l-20.12-46.78Z"/><path class="cls-3_presentation-74" d="m332.51,190.8s-25.23,35.08-30.36,64.68l-30.68-57.44-10.87,6.93s27.26,89.99,50.33,93.3c23.07,3.31,41.7-60.7,41.7-60.7l-20.12-46.78Z"/><path class="cls-4_presentation-74" d="m376.93,142.79s-.13,8.03,1.59,13.24c.7,2.11,3.01,3.28,5.12,2.55,2.61-.9,5.88-2.88,6.47-7.18l1.9-7.17s1.03-4.53-3.71-7.46c-4.75-2.93-11.54,1.12-11.37,6.01Z"/><polygon class="cls-4_presentation-74" points="392.23 148.36 395.45 174.48 380.93 175.23 384.42 155.92 392.23 148.36"/><path class="cls-13_presentation-74" d="m393.48,150.37h0c.03.35-.19.66-.52.77-1.19.39-4.02.9-6.16-1.92-2.78-3.66-.52-7.33-.52-7.33-3.37.87-5.94,1.07-7.34,1.09-.84.02-1.68-.06-2.47-.32l-2.49-5.87s-3.73-5.77-.28-7.33c3.45-1.56,5.41,2.35,8.06-.78,2.65-3.14,3.22-4.27,6.32-2.92,3.1,1.35-.1,3.97,4.76,3.57s5.12,1.59,5.33,3.8c.05.55-.26,1.3-.77,2.1-2.84,4.54-4.36,9.79-3.91,15.13Z"/><path class="cls-4_presentation-74" d="m385.93,149.04s-.16-3.09,2.17-3.02c2.33.07,2.59,4.53-.53,5.17l-1.65-2.16Z"/><path class="cls-4_presentation-74" d="m377.11,147.85l-2.01,3.24c-.5.8,0,1.85.95,1.96l3.1.36-2.04-5.56Z"/><path class="cls-9_presentation-74" d="m384,158.5s1.87-.08,5.53-2.64c0,0-.19,5.25-6.61,8.31l1.07-5.67Z"/><path class="cls-12_presentation-74" d="m450.95,219.11c2.85-22.58,3.36-33.27-36.06-45.69-18.77-5.91-45.36-1.58-69.84,9.55-48.57,22.07,8.62,78.95,3.54,117.65l62.58,8.95s33.57-41.31,39.78-90.46Z"/><path class="cls-12_presentation-74" d="m409.78,172.1s-.76-8.86-18.27-7.2c-17.5,1.66-26.14.42-26.11,10.54,0,0,10.33,12.45,44.37-3.34Z"/><path class="cls-3_presentation-74" d="m409.78,172.1s-.76-8.86-18.27-7.2c-17.5,1.66-26.14.42-26.11,10.54,0,0,10.33,12.45,44.37-3.34Z"/><path class="cls-6_presentation-74" d="m425.96,195.82s-17,9.22-16.18,37.37c.82,28.15-8.03,37.39-24.58,38.81-16.55,1.42,40.76-4.27,40.76-4.27l13.79-33.71-13.79-38.21Z"/><path class="cls-12_presentation-74" d="m425.88,199.41c.89-12.67,17.6-16.99,24.24-6.16,5.62,9.17,10.02,22.08,9.69,39.92-.88,47.48-6.82,65.59-25.6,64.25-13.18-.94-10.87-61.82-8.32-98.01Z"/><path class="cls-12_presentation-74" d="m425.88,199.41c.89-12.67,17.6-16.99,24.24-6.16,5.62,9.17,10.02,22.08,9.69,39.92-.88,47.48-6.82,65.59-25.6,64.25-13.18-.94-10.87-61.82-8.32-98.01Z"/><path class="cls-3_presentation-74" d="m425.88,199.41c.89-12.67,17.6-16.99,24.24-6.16,5.62,9.17,10.02,22.08,9.69,39.92-.88,47.48-6.82,65.59-25.6,64.25-13.18-.94-10.87-61.82-8.32-98.01Z"/><rect class="cls-13_presentation-74" x="328.26" y="242.29" width="119.3" height="185.9"/><rect class="cls-13_presentation-74" x="316.15" y="417.28" width="144.57" height="19.91"/><rect class="cls-2_presentation-74" x="316.15" y="417.28" width="144.57" height="19.91"/><path class="cls-13_presentation-74" d="m366.75,251.64c-.22-1.33-5.28-32.8,9.31-44.15l1.91,2.46c-13.12,10.2-8.2,40.86-8.15,41.17l-3.07.51Z"/><circle class="cls-13_presentation-74" cx="377.58" cy="208.39" r="5.35"/><path class="cls-13_presentation-74" d="m352.63,242.29s15.87-20.47,34.96,0h-34.96Z"/><ellipse class="cls-2_presentation-74" cx="388.73" cy="327.7" rx="31.99" ry="42.66"/><path class="cls-4_presentation-74" d="m269.33,199.41s-7.21-15.81-12.9-16.28,4.17,21.85,4.17,21.85l8.74-5.57Z"/><rect class="cls-13_presentation-74" x="316.15" y="241.43" width="144.57" height="19.91"/><rect class="cls-2_presentation-74" x="316.15" y="241.43" width="144.57" height="19.91"/></g></svg>